<svg xmlns="http://www.w3.org/2000/svg" viewBox="0 0 820 480" width="820" height="480" font-family="Inter, -apple-system, BlinkMacSystemFont, sans-serif">
  <defs>
    <marker id="arr" markerWidth="8" markerHeight="6" refX="7" refY="3" orient="auto">
      <polygon points="0 0, 8 3, 0 6" fill="#9090B8"/>
    </marker>
  </defs>

  <rect width="820" height="480" fill="#FFFFFF"/>

  <!-- Title -->
  <text x="410" y="28" text-anchor="middle" font-size="15" font-weight="700" fill="#14002D">How companies get their entitlements</text>

  <!-- ═══ COMPANY ═══ -->
  <rect x="205" y="46" width="210" height="44" rx="22" fill="#14002D"/>
  <text x="310" y="68" text-anchor="middle" dominant-baseline="middle" font-size="13" font-weight="600" fill="#FFFFFF">Company</text>

  <!-- Arrow down from Company, then branch to Plan and Add-On -->
  <line x1="310" y1="90" x2="310" y2="115" stroke="#9090B8" stroke-width="1.5"/>
  <line x1="310" y1="115" x2="175" y2="115" stroke="#9090B8" stroke-width="1.5"/>
  <line x1="175" y1="115" x2="175" y2="143" stroke="#9090B8" stroke-width="1.5" marker-end="url(#arr)"/>
  <line x1="310" y1="115" x2="375" y2="115" stroke="#9090B8" stroke-width="1.5"/>
  <line x1="375" y1="115" x2="375" y2="143" stroke="#9090B8" stroke-width="1.5" marker-end="url(#arr)"/>

  <!-- ═══ PLAN ═══ -->
  <rect x="78" y="143" width="194" height="52" rx="7" fill="#EDE9FE" stroke="#9563FF" stroke-width="1.5"/>
  <text x="175" y="163" text-anchor="middle" dominant-baseline="middle" font-size="12" font-weight="600" fill="#4C1D95">Plan</text>
  <text x="175" y="182" text-anchor="middle" dominant-baseline="middle" font-size="10" fill="#7C3AED">one per company</text>

  <!-- ═══ ADD-ON (dashed = optional) ═══ -->
  <rect x="276" y="143" width="198" height="52" rx="7" fill="#EDE9FE" stroke="#9563FF" stroke-width="1.5" stroke-dasharray="5 3"/>
  <text x="375" y="163" text-anchor="middle" dominant-baseline="middle" font-size="12" font-weight="600" fill="#4C1D95">Add-On</text>
  <text x="375" y="182" text-anchor="middle" dominant-baseline="middle" font-size="10" fill="#7C3AED">zero or more</text>

  <!-- ═══ COMPANY OVERRIDE ═══ -->
  <rect x="532" y="143" width="218" height="52" rx="7" fill="#EDE9FE" stroke="#9563FF" stroke-width="1.5"/>
  <text x="641" y="163" text-anchor="middle" dominant-baseline="middle" font-size="12" font-weight="600" fill="#4C1D95">Company Override</text>
  <text x="641" y="182" text-anchor="middle" dominant-baseline="middle" font-size="10" fill="#7C3AED">per-company exception</text>

  <!-- Merge: Plan + Add-On lines converge, then single arrow down -->
  <line x1="175" y1="195" x2="175" y2="220" stroke="#9090B8" stroke-width="1.5"/>
  <line x1="375" y1="195" x2="375" y2="220" stroke="#9090B8" stroke-width="1.5"/>
  <line x1="175" y1="220" x2="375" y2="220" stroke="#9090B8" stroke-width="1.5"/>
  <line x1="275" y1="220" x2="275" y2="246" stroke="#9090B8" stroke-width="1.5" marker-end="url(#arr)"/>

  <!-- Override arrow down and into entitlements -->
  <line x1="641" y1="195" x2="641" y2="222" stroke="#9090B8" stroke-width="1.5"/>
  <line x1="641" y1="222" x2="698" y2="222" stroke="#9090B8" stroke-width="1.5"/>
  <line x1="698" y1="222" x2="698" y2="246" stroke="#9090B8" stroke-width="1.5" marker-end="url(#arr)"/>

  <!-- ═══ ENTITLEMENTS BOX ═══ -->
  <!-- outer border + body fill -->
  <rect x="60" y="248" width="700" height="212" rx="7" fill="#F5F3FF" stroke="#9563FF" stroke-width="1.5"/>
  <!-- dark header fill (inset 1px to stay inside border) -->
  <rect x="61" y="249" width="698" height="34" rx="6" fill="#14002D"/>
  <!-- divider -->
  <line x1="61" y1="283" x2="759" y2="283" stroke="#9563FF" stroke-width="1"/>
  <!-- header label -->
  <text x="410" y="266" text-anchor="middle" dominant-baseline="middle" font-size="13" font-weight="700" fill="#FFFFFF">Entitlements</text>

  <!-- Row 1: Feature access -->
  <circle cx="90" cy="311" r="4" fill="#9563FF"/>
  <text x="106" y="311" dominant-baseline="middle" font-size="12" font-weight="600" fill="#4C1D95">Feature access</text>
  <text x="310" y="311" dominant-baseline="middle" font-size="11" fill="#6B7280">e.g. SSO, Advanced Reporting</text>

  <!-- Row 2: Event-based usage -->
  <circle cx="90" cy="351" r="4" fill="#9563FF"/>
  <text x="106" y="351" dominant-baseline="middle" font-size="12" font-weight="600" fill="#4C1D95">Event-based usage</text>
  <text x="310" y="351" dominant-baseline="middle" font-size="11" fill="#6B7280">e.g. up to 1,000 API calls per month</text>

  <!-- Row 3: Seats -->
  <circle cx="90" cy="391" r="4" fill="#9563FF"/>
  <text x="106" y="391" dominant-baseline="middle" font-size="12" font-weight="600" fill="#4C1D95">Seats</text>
  <text x="310" y="391" dominant-baseline="middle" font-size="11" fill="#6B7280">e.g. up to 50 licensed users</text>

  <!-- Row 4: Reported resource usage -->
  <circle cx="90" cy="431" r="4" fill="#9563FF"/>
  <text x="106" y="431" dominant-baseline="middle" font-size="12" font-weight="600" fill="#4C1D95">Reported resource usage</text>
  <text x="310" y="431" dominant-baseline="middle" font-size="11" fill="#6B7280">e.g. active projects, GB of storage</text>

</svg>
