<svg xmlns="http://www.w3.org/2000/svg" xmlns:xlink="http://www.w3.org/1999/xlink" xmlns:lucid="lucid" width="2320" height="1402"><g transform="translate(-19 41)" lucid:page-tab-id="0_0"><path d="M0-500h2500v2000H0z" fill="#fff"/><path d="M20-34a6 6 0 0 1 6-6h468a6 6 0 0 1 6 6v1388a6 6 0 0 1-6 6H26a6 6 0 0 1-6-6z" stroke="#000" stroke-width="2" fill="#fff"/><use xlink:href="#a" transform="matrix(1,0,0,1,25,-35) translate(57.529296875 38.75)"/><use xlink:href="#b" transform="matrix(1,0,0,1,25,-35) translate(155.556640625 38.75)"/><path d="M60 86a6 6 0 0 1 6-6h388a6 6 0 0 1 6 6v548a6 6 0 0 1-6 6H66a6 6 0 0 1-6-6z" stroke="#000" stroke-width="2" fill="#fff"/><use xlink:href="#a" transform="matrix(1,0,0,1,65,85) translate(71.982421875 38.75)"/><use xlink:href="#c" transform="matrix(1,0,0,1,65,85) translate(170.009765625 38.75)"/><path d="M80 186a6 6 0 0 1 6-6h348a6 6 0 0 1 6 6v88a6 6 0 0 1-6 6H86a6 6 0 0 1-6-6z" stroke="#000" stroke-width="2" fill="#fff"/><use xlink:href="#d" transform="matrix(1,0,0,1,85,185) translate(53.339843749999986 54.661458333333336)"/><use xlink:href="#e" transform="matrix(1,0,0,1,85,185) translate(201.92057291666669 54.661458333333336)"/><path d="M80 346a6 6 0 0 1 6-6h348a6 6 0 0 1 6 6v88a6 6 0 0 1-6 6H86a6 6 0 0 1-6-6z" stroke="#000" stroke-width="2" fill="#fff"/><use xlink:href="#f" transform="matrix(1,0,0,1,85,345) translate(76.27604166666666 54.661458333333336)"/><use xlink:href="#g" transform="matrix(1,0,0,1,85,345) translate(164.5703125 54.661458333333336)"/><path d="M80 506a6 6 0 0 1 6-6h348a6 6 0 0 1 6 6v88a6 6 0 0 1-6 6H86a6 6 0 0 1-6-6z" stroke="#000" stroke-width="2" fill="#fff"/><use xlink:href="#h" transform="matrix(1,0,0,1,85,505) translate(94.62890624999999 54.661458333333336)"/><path d="M620-34a6 6 0 0 1 6-6h1108a6 6 0 0 1 6 6v1388a6 6 0 0 1-6 6H626a6 6 0 0 1-6-6z" stroke="#000" stroke-width="2" fill="#fff"/><use xlink:href="#i" transform="matrix(1,0,0,1,625,-35) translate(455.693359375 38.75)"/><path d="M1858-34a6 6 0 0 1 6-6h468a6 6 0 0 1 6 6v1388a6 6 0 0 1-6 6h-468a6 6 0 0 1-6-6z" stroke="#000" stroke-width="2" fill="#fff"/><use xlink:href="#j" transform="matrix(1,0,0,1,1863,-35) translate(179.033203125 38.75)"/><path d="M700 86a6 6 0 0 1 6-6h348a6 6 0 0 1 6 6v88a6 6 0 0 1-6 6H706a6 6 0 0 1-6-6z" stroke="#000" stroke-width="2" fill="#fff"/><use xlink:href="#k" transform="matrix(1,0,0,1,705,85) translate(52.734374999999986 54.661458333333336)"/><use xlink:href="#l" transform="matrix(1,0,0,1,705,85) translate(113.76302083333333 54.661458333333336)"/><use xlink:href="#m" transform="matrix(1,0,0,1,705,85) translate(201.92708333333337 54.661458333333336)"/><path d="M1620 368.28c0 14-53.73 25.36-120 25.36-66.27 0-120-11.35-120-25.36V165.36c0-14 53.73-25.36 120-25.36 66.27 0 120 11.36 120 25.36z" stroke="#000" stroke-width="2" fill="#fff"/><path d="M1620 165.36c0 14-53.73 25.37-120 25.37-66.27 0-120-11.36-120-25.37" stroke="#000" stroke-width="2" fill="none"/><use xlink:href="#n" transform="matrix(1,0,0,1,1385,195.72839235615086) translate(32.90364583333334 88.62543402777777)"/><use xlink:href="#o" transform="matrix(1,0,0,1,1385,195.72839235615086) translate(76.26302083333334 88.62543402777777)"/><use xlink:href="#p" transform="matrix(1,0,0,1,1385,195.72839235615086) translate(129.59418402777777 88.62543402777777)"/><use xlink:href="#q" transform="matrix(1,0,0,1,1385,195.72839235615086) translate(78.06966145833334 120.89105902777777)"/><path d="M1067.22 123.03l.33-.07 1.07-.17 1.42-.18 1.96-.15 2.8-.1 4.2.03 6.7.34 11.56 1.06 21.8 2.94 43.46 7.73 72.1 15.86 65.35 17.1 35.35 10.8 17.44 6.16 9.28 3.7.52.25m10.22 23.44l-.33.06-1.07.17-1.42.17-1.96.15-2.8.1-4.2-.03-6.7-.33-11.56-1.08-21.8-2.94-43.46-7.73-72.1-15.86-65.35-17.1-35.35-10.82-17.44-6.15-9.28-3.72-.52-.22" stroke="#3a414a" fill="none"/><path d="M1067.33 123.5l-.5.1-.2-.94.5-.1z" stroke="#3a414a" stroke-width=".05" fill="#3a414a"/><path d="M1375.52 195.35l-14.76-2.7 4.4-8.16z" stroke="#3a414a" fill="#3a414a"/><path d="M1373.37 212.16l-.5.1-.2-.93.5-.1z" stroke="#3a414a" stroke-width=".05" fill="#3a414a"/><path d="M1064.48 139.47l14.76 2.7-4.4 8.17z" stroke="#3a414a" fill="#3a414a"/><path d="M442.16 220.7l.1-.1.56-.62.73-.73.97-.9 1.35-1.14 1.9-1.48 2.8-2 4.34-2.84 7.07-4.2 12.26-6.6 22.44-10.9 39.56-17.22 51.87-20.14 41.36-14.16 24.32-7.23 13.73-3.45 8.16-1.7.44-.07m21.74 14.1l-.1.1-.56.62-.73.73-.97.9-1.35 1.14-1.9 1.48-2.8 2-4.34 2.84-7.07 4.2-12.26 6.6-22.44 10.9-39.56 17.22-51.87 20.14-41.36 14.16-24.33 7.23-13.7 3.45-8.16 1.7-.44.07" stroke="#3a414a" fill="none"/><path d="M442.53 221l-.33.4-.72-.6.32-.4z" stroke="#3a414a" stroke-width=".05" fill="#3a414a"/><path d="M690.77 124.1l-13.88 5.7-.7-9.24z" stroke="#3a414a" fill="#3a414a"/><path d="M698.52 139.2l-.32.4-.73-.6.33-.4z" stroke="#3a414a" stroke-width=".05" fill="#3a414a"/><path d="M449.23 235.9l13.88-5.7.7 9.24z" stroke="#3a414a" fill="#3a414a"/><path d="M700 346a6 6 0 0 1 6-6h348a6 6 0 0 1 6 6v88a6 6 0 0 1-6 6H706a6 6 0 0 1-6-6z" stroke="#000" stroke-width="2" fill="#fff"/><use xlink:href="#r" transform="matrix(1,0,0,1,705,345) translate(88.3203125 54.661458333333336)"/><use xlink:href="#m" transform="matrix(1,0,0,1,705,345) translate(166.34114583333334 54.661458333333336)"/><path d="M441.5 390h241.12" stroke="#3a414a" fill="none"/><path d="M441.5 390.48h-.5v-.96h.5z" stroke="#3a414a" stroke-width=".05" fill="#3a414a"/><path d="M697.38 390l-14.26 4.63v-9.26z" stroke="#3a414a" fill="#3a414a"/><path d="M880.48 657.9l.06.88.2.84.34.8.45.74.56.66.65.56.74.45.8.33.84.2.88.07h358l1 .08.98.25.94.4.87.52.78.66.66.77.53.87.4.94.23 1 .07 1v170.9l.07.88.2.85.34.8.45.74.56.66.65.56.74.44.8.33.84.2.88.08h106.6v.95h-106.64l-1-.08-.98-.24-.94-.4-.87-.52-.78-.66-.66-.77-.53-.87-.4-.94-.23-1-.07-.98v-170.9l-.07-.9-.2-.84-.34-.8-.45-.74-.56-.65-.65-.56-.74-.45-.8-.34-.84-.2-.88-.08h-358l-1-.07-.98-.23-.94-.4-.87-.52-.78-.66-.66-.78-.53-.87-.4-.94-.23-.98-.08-1V441.5h.96z" stroke="#3a414a" stroke-width=".05" fill="#3a414a"/><path d="M880.48 441.5h-.96v-.5h.96z" fill="#3a414a"/><path stroke="#3a414a" stroke-width=".05" fill="#3a414a"/><path d="M1377.38 846.82l-14.26 4.64v-9.27z" fill="#3a414a"/><path d="M1378.92 846.82l-16.28 5.3v-10.6zm-15.33 3.98l12.25-3.98-12.26-3.98z" stroke="#3a414a" stroke-width=".05" fill="#3a414a"/><path d="M1620 948.28c0 14-53.73 25.36-120 25.36-66.27 0-120-11.35-120-25.36V745.36c0-14 53.73-25.36 120-25.36 66.27 0 120 11.36 120 25.36z" stroke="#000" stroke-width="2" fill="#fff"/><path d="M1620 745.36c0 14-53.73 25.37-120 25.37-66.27 0-120-11.36-120-25.37" stroke="#000" stroke-width="2" fill="none"/><use xlink:href="#s" transform="matrix(1,0,0,1,1385,775.7283923561508) translate(29.892578125 88.62543402777777)"/><use xlink:href="#t" transform="matrix(1,0,0,1,1385,775.7283923561508) translate(84.80794270833333 88.62543402777777)"/><use xlink:href="#u" transform="matrix(1,0,0,1,1385,775.7283923561508) translate(169.53016493055554 88.62543402777777)"/><use xlink:href="#v" transform="matrix(1,0,0,1,1385,775.7283923561508) translate(47.24283854166667 120.89105902777777)"/><path d="M1320 526a6 6 0 0 1 6-6h348a6 6 0 0 1 6 6v88a6 6 0 0 1-6 6h-348a6 6 0 0 1-6-6z" stroke="#000" stroke-width="2" fill="#fff"/><use xlink:href="#w" transform="matrix(1,0,0,1,1325,525) translate(76.2890625 54.661458333333336)"/><use xlink:href="#m" transform="matrix(1,0,0,1,1325,525) translate(178.37239583333331 54.661458333333336)"/><path d="M1061.5 390H1344a6 6 0 0 0 6-6V272.82a6 6 0 0 1 6-6h6.62" stroke="#3a414a" fill="none"/><path d="M1061.5 390.48h-.5v-.96h.5z" stroke="#3a414a" stroke-width=".05" fill="#3a414a"/><path d="M1377.38 266.82l-14.26 4.64v-9.27z" stroke="#3a414a" fill="#3a414a"/><use xlink:href="#x" transform="matrix(1,0,0,1,1082.5387689235808,353.734375) translate(0.0049999999999954525 25.833333333333336)"/><use xlink:href="#y" transform="matrix(1,0,0,1,1082.5387689235808,353.734375) translate(119.96593750000002 25.833333333333336)"/><path d="M1500 718.5v-81.12" stroke="#3a414a" fill="none"/><path d="M1500.47 719H1499.54v-.5h.94z" stroke="#3a414a" stroke-width=".05" fill="#3a414a"/><path d="M1500 622.62l4.63 14.26h-9.27z" stroke="#3a414a" fill="#3a414a"/><path d="M1500.47 518.5h-.94v-45.55h.94zm0-77.8h-.94v-29.67h.94z" stroke="#3a414a" stroke-width=".05" fill="#3a414a"/><path d="M1500.47 519h-.94v-.5h.94z" fill="#3a414a"/><path stroke="#3a414a" stroke-width=".05" fill="#3a414a"/><path d="M1504.63 410.53h-9.27l4.64-14.27z" fill="#3a414a"/><path d="M1505.3 411h-10.6l5.3-16.28zm-9.28-.95h7.96L1500 397.8z" stroke="#3a414a" stroke-width=".05" fill="#3a414a"/><use xlink:href="#z" transform="matrix(1,0,0,1,1323.88671875,440.68819543160305) translate(0.0049999999999954525 25.833333333333336)"/><use xlink:href="#A" transform="matrix(1,0,0,1,1323.88671875,440.68819543160305) translate(135.18729166666668 25.833333333333336)"/><use xlink:href="#B" transform="matrix(1,0,0,1,1323.88671875,440.68819543160305) translate(224.17166666666668 25.833333333333336)"/><path d="M637 778.4l157.84 156.43 47.44 43.32 16.1 13.47 7.2 5.53 3.84 2.7 1.9 1.2-.52.8-1.9-1.22-3.9-2.72-7.22-5.54-16.12-13.5-47.48-43.34-157.85-156.47-2.85-3.03h1.3zm188 140.63l37.54 43.37 11.42 14.4-.74.6L861.8 963l-37.52-43.34-135.2-143.64h1.3zM459.2 586l37.52 43.34 34.8 36.98h-1.3l-34.2-36.35-37.56-43.37-11.42-14.4.74-.6zm-7.1-37.63l3.9 2.72 7.22 5.54 16.12 13.5 47.48 43.34 53.3 52.84h-1.35l-52.6-52.15-47.45-43.32-16.1-13.47-7.2-5.53-3.84-2.7-1.9-1.2.52-.8z" stroke="#3a414a" stroke-width=".05" fill="#3a414a"/><path d="M450.2 547.14l-.5.8-.44-.27.5-.8z" fill="#3a414a"/><path stroke="#3a414a" stroke-width=".05" fill="#3a414a"/><path d="M882 989.22l-11.94-9.08 7.62-5.3z" fill="#3a414a"/><path d="M882.88 990.48l-13.63-10.36 8.7-6.03zm-12-10.32l10.25 7.8-3.72-12.34zM871.74 1001.33l-.5.8-.45-.27.5-.8z" stroke="#3a414a" stroke-width=".05" fill="#3a414a"/><path d="M450.94 568.86l-7.62 5.3-4.32-14.38z" fill="#3a414a"/><path d="M451.75 568.88l-8.7 6.03-4.93-16.38zm-8.16 4.5l6.53-4.54-10.25-7.8z" stroke="#3a414a" stroke-width=".05" fill="#3a414a"/><use xlink:href="#C" transform="matrix(1,0,0,1,523.9953345728903,666.3195819087803) translate(0.0049999999999954525 25.833333333333336)"/><use xlink:href="#D" transform="matrix(1,0,0,1,523.9953345728903,666.3195819087803) translate(134.52322916666665 25.833333333333336)"/><use xlink:href="#E" transform="matrix(1,0,0,1,523.9953345728903,666.3195819087803) translate(24.484166666666667 64.55208333333334)"/><use xlink:href="#F" transform="matrix(1,0,0,1,523.9953345728903,666.3195819087803) translate(110.79927083333334 64.55208333333334)"/><use xlink:href="#G" transform="matrix(1,0,0,1,523.9953345728903,666.3195819087803) translate(48.045364583333324 103.27083333333334)"/><path d="M700 1006a6 6 0 0 1 6-6h348a6 6 0 0 1 6 6v88a6 6 0 0 1-6 6H706a6 6 0 0 1-6-6z" stroke="#000" stroke-width="2" fill="#fff"/><use xlink:href="#H" transform="matrix(1,0,0,1,705,1005) translate(83.75 54.661458333333336)"/><use xlink:href="#I" transform="matrix(1,0,0,1,705,1005) translate(223.65885416666666 54.661458333333336)"/><path d="M1068.77 1044.82l.38.02 1.13.12 1.52.22 2.08.4 3 .7 4.53 1.27 7.35 2.4 12.94 4.83 25.07 10.58 49.97 23.6 72.84 38 53.38 30.6 26.15 16.48 12.73 8.78 5.32 4m4.08 25.2l-.38-.04-1.13-.12-1.52-.22-2.08-.4-3-.7-4.53-1.27-7.35-2.4-12.94-4.82-25.07-10.6-49.97-23.6-72.84-38-53.38-30.6-26.15-16.47-12.73-8.78-5.32-4" stroke="#3a414a" fill="none"/><path d="M1068.8 1044.34l-.05.95-.5-.04.05-.95z" stroke="#3a414a" stroke-width=".05" fill="#3a414a"/><path d="M1358 1196.8l-13.65-6.25 6.27-6.83z" stroke="#3a414a" fill="#3a414a"/><path d="M1351.76 1211.56l-.06.95-.5-.02.05-.95z" stroke="#3a414a" stroke-width=".05" fill="#3a414a"/><path d="M1062 1060.04l13.65 6.23-6.27 6.83z" stroke="#3a414a" fill="#3a414a"/><path d="M1600 1308.28c0 14-53.73 25.36-120 25.36-66.27 0-120-11.35-120-25.36v-202.92c0-14 53.73-25.36 120-25.36 66.27 0 120 11.36 120 25.36z" stroke="#000" stroke-width="2" fill="#fff"/><path d="M1600 1105.36c0 14-53.73 25.37-120 25.37-66.27 0-120-11.36-120-25.37" stroke="#000" stroke-width="2" fill="none"/><use xlink:href="#J" transform="matrix(1,0,0,1,1365,1135.7283923561508) translate(9.303385416666686 88.62543402777777)"/><use xlink:href="#K" transform="matrix(1,0,0,1,1365,1135.7283923561508) translate(66.06336805555557 88.62543402777777)"/><use xlink:href="#u" transform="matrix(1,0,0,1,1365,1135.7283923561508) translate(190.11935763888886 88.62543402777777)"/><use xlink:href="#L" transform="matrix(1,0,0,1,1365,1135.7283923561508) translate(60.64887152777778 120.89105902777777)"/><path d="M700 1206a6 6 0 0 1 6-6h348a6 6 0 0 1 6 6v88a6 6 0 0 1-6 6H706a6 6 0 0 1-6-6z" stroke="#000" stroke-width="2" fill="#fff"/><use xlink:href="#H" transform="matrix(1,0,0,1,705,1205) translate(36.08723958333334 54.661458333333336)"/><use xlink:href="#M" transform="matrix(1,0,0,1,705,1205) translate(175.99609375 54.661458333333336)"/><use xlink:href="#N" transform="matrix(1,0,0,1,705,1205) translate(240.29296875 54.661458333333336)"/><path d="M871.58 1194.73l-.44-.33-.46-.38-.48-.44-.5-.52-.55-.63-.58-.74-.62-.9-.67-1.1-.72-1.35-.8-1.7-.84-2.1-.92-2.72-.96-3.5-.98-4.47-.9-5.7-.74-6.98-.4-8 .07-8.33.47-7.8.78-6.68.94-5.4.97-4.22.56-1.93m24.6-13.55l.43.33.46.38.48.44.5.52.55.63.58.74.62.9.67 1.1.72 1.35.8 1.7.84 2.1.92 2.72.96 3.5.98 4.47.9 5.7.74 6.98.4 8-.07 8.33-.47 7.8-.78 6.68-.94 5.4-.97 4.22-.56 1.93" stroke="#3a414a" fill="none"/><path d="M872.26 1194.6l-.52.8-.43-.28.53-.8z" stroke="#3a414a" stroke-width=".05" fill="#3a414a"/><path d="M871.18 1106.4l-3.27 14.63-7.97-4.7z" stroke="#3a414a" fill="#3a414a"/><path d="M888.7 1104.88l-.53.8-.43-.28.52-.8z" stroke="#3a414a" stroke-width=".05" fill="#3a414a"/><path d="M888.82 1193.6l3.27-14.63 7.97 4.7z" stroke="#3a414a" fill="#3a414a"/><path d="M80 926a6 6 0 0 1 6-6h348a6 6 0 0 1 6 6v88a6 6 0 0 1-6 6H86a6 6 0 0 1-6-6z" stroke="#000" stroke-width="2" fill="#fff"/><use xlink:href="#O" transform="matrix(1,0,0,1,85,925) translate(15.299479166666657 35.325520833333336)"/><use xlink:href="#P" transform="matrix(1,0,0,1,85,925) translate(145.52083333333334 35.325520833333336)"/><use xlink:href="#Q" transform="matrix(1,0,0,1,85,925) translate(53.39192708333333 74.04427083333334)"/><use xlink:href="#R" transform="matrix(1,0,0,1,85,925) translate(115.11067708333334 74.04427083333334)"/><path d="M450.05 967.74l.5.25 1.3.67 1.74 1.04 2.5 1.64 3.8 2.7 6.2 4.84 11.22 9.5 22.8 21.04 48.9 49.07 71.1 77.18 44.64 52.46 18.98 24.3 8.5 11.87 2 3.05m-4.28 24.9l-.52-.24-1.28-.67-1.75-1.04-2.5-1.64-3.8-2.7-6.2-4.84-11.22-9.5-22.8-21.04-48.9-49.07-71.1-77.18-44.64-52.46-18.98-24.3-8.5-11.87-2-3.05" stroke="#3a414a" fill="none"/><path d="M450.26 967.32l-.4.85-.47-.22.4-.86z" stroke="#3a414a" stroke-width=".05" fill="#3a414a"/><path d="M701.4 1240.22l-11-10.2 8.1-4.52z" stroke="#3a414a" fill="#3a414a"/><path d="M690.6 1252.05l-.4.86-.46-.22.4-.85z" stroke="#3a414a" stroke-width=".05" fill="#3a414a"/><path d="M438.6 979.78l11 10.2-8.1 4.52z" stroke="#3a414a" fill="#3a414a"/><path d="M1661.6 1200.84l-.07 1-.24.98-.4.94-.53.87-.66.77-.76.66-.87.53-.94.38-1 .24-.98.08h-37.77v-.95h37.73l.9-.07.84-.2.8-.34.74-.45.66-.57.56-.66.45-.74.34-.8.2-.85.06-.88v-160.6h.95zm0-192.92h-.94V621.5h.95z" stroke="#3a414a" stroke-width=".05" fill="#3a414a"/><path d="M1661.6 621.5h-.94v-.5h.95z" fill="#3a414a"/><path stroke="#3a414a" stroke-width=".05" fill="#3a414a"/><path d="M1616.88 1211.46l-14.26-4.64 14.26-4.63z" fill="#3a414a"/><path d="M1617.36 1212.1l-16.28-5.28 16.28-5.3zm-13.2-5.28l12.25 3.98v-7.96z" stroke="#3a414a" stroke-width=".05" fill="#3a414a"/><path d="M1918 766a6 6 0 0 1 6-6h348a6 6 0 0 1 6 6v88a6 6 0 0 1-6 6h-348a6 6 0 0 1-6-6z" stroke="#000" stroke-width="2" fill="#fff"/><g><use xlink:href="#O" transform="matrix(1,0,0,1,1923,764.9999999999999) translate(27.317708333333314 35.325520833333336)"/><use xlink:href="#S" transform="matrix(1,0,0,1,1923,764.9999999999999) translate(157.5390625 35.325520833333336)"/><use xlink:href="#T" transform="matrix(1,0,0,1,1923,764.9999999999999) translate(109.02994791666667 74.04427083333334)"/></g><path d="M1868.47 1044.02l-.07 1-.24.98-.4.94-.52.87-.66.78-.77.66-.86.53-.94.4-1 .23-.98.07H1061.5v-.94h800.48l.88-.07.85-.2.8-.34.75-.45.66-.56.57-.65.45-.74.33-.8.2-.84.08-.88v-3.8h.94zm32.15-233.54h-26.6l-.88.06-.85.2-.8.34-.75.45-.66.56-.57.65-.45.74-.33.8-.2.84-.08.88v191.9h-.94V815.98l.07-1 .24-.98.4-.94.52-.87.66-.78.77-.66.86-.53.94-.4 1-.23.98-.08h26.64z" stroke="#3a414a" stroke-width=".05" fill="#3a414a"/><path d="M1061.5 1050.47h-.5v-.94h.5z" fill="#3a414a"/><path stroke="#3a414a" stroke-width=".05" fill="#3a414a"/><path d="M1915.38 810l-14.26 4.63v-9.26z" fill="#3a414a"/><path d="M1916.92 810l-16.28 5.3v-10.6zm-15.33 3.98l12.25-3.98-12.26-3.98z" stroke="#3a414a" stroke-width=".05" fill="#3a414a"/><g><use xlink:href="#U" transform="matrix(1,0,0,1,1656.2877604166665,1007.9210734774119) translate(0.0049999999999954525 25.833333333333336)"/><use xlink:href="#V" transform="matrix(1,0,0,1,1656.2877604166665,1007.9210734774119) translate(172.8565625 25.833333333333336)"/><use xlink:href="#W" transform="matrix(1,0,0,1,1656.2877604166665,1007.9210734774119) translate(290.68208333333337 25.833333333333336)"/><use xlink:href="#X" transform="matrix(1,0,0,1,1656.2877604166665,1007.9210734774119) translate(307.34875000000005 25.833333333333336)"/></g><path d="M1799.47 623.98l.07.88.2.85.34.8.45.75.56.66.65.57.74.45.8.33.84.2.88.07h95.6v.96h-95.64l-1-.08-.98-.24-.94-.4-.87-.52-.78-.66-.66-.77-.53-.86-.4-.94-.23-1-.07-.98v-2.28h.94zM1794 542.1l1 .24.94.4.87.52.78.66.66.77.53.86.4.94.23.98.07 1v2.28h-.94v-2.24l-.07-.9-.2-.83-.34-.8-.45-.75-.56-.66-.65-.57-.74-.45-.8-.34-.84-.2-.88-.07H1681.5v-.95h111.52z" stroke="#3a414a" stroke-width=".05" fill="#3a414a"/><path d="M1681.5 542.97h-.5v-.95h.5z" fill="#3a414a"/><path stroke="#3a414a" stroke-width=".05" fill="#3a414a"/><path d="M1915.38 630l-14.26 4.63v-9.26z" fill="#3a414a"/><path d="M1916.92 630l-16.28 5.3v-10.6zm-15.33 3.98l12.25-3.98-12.26-3.98z" stroke="#3a414a" stroke-width=".05" fill="#3a414a"/><g><use xlink:href="#Y" transform="matrix(1,0,0,1,1714.4166666666667,550.7563505116959) translate(0.0049999999999954525 25.833333333333336)"/><use xlink:href="#Z" transform="matrix(1,0,0,1,1714.4166666666667,550.7563505116959) translate(88.98937500000001 25.833333333333336)"/><use xlink:href="#aa" transform="matrix(1,0,0,1,1714.4166666666667,550.7563505116959) translate(41.84744791666667 64.55208333333334)"/><use xlink:href="#ab" transform="matrix(1,0,0,1,1714.4166666666667,550.7563505116959) translate(48.16255208333333 64.55208333333334)"/></g><path d="M2098 758.5v-61.12" stroke="#3a414a" fill="none"/><path d="M2098.47 759h-.94v-.5h.94z" stroke="#3a414a" stroke-width=".05" fill="#3a414a"/><path d="M2098 682.62l4.64 14.26h-9.28z" stroke="#3a414a" fill="#3a414a"/><path d="M1918 586a6 6 0 0 1 6-6h348a6 6 0 0 1 6 6v88a6 6 0 0 1-6 6h-348a6 6 0 0 1-6-6z" stroke="#000" stroke-width="2" fill="#fff"/><g><use xlink:href="#O" transform="matrix(1,0,0,1,1923,585) translate(57.74088541666666 35.325520833333336)"/><use xlink:href="#ac" transform="matrix(1,0,0,1,1923,585) translate(187.96223958333334 35.325520833333336)"/><use xlink:href="#ad" transform="matrix(1,0,0,1,1923,585) translate(57.55859375 74.04427083333334)"/><use xlink:href="#ae" transform="matrix(1,0,0,1,1923,585) translate(194.95442708333331 74.04427083333334)"/></g><path d="M1083.27 910.12h-75.44l-.88.07-.85.2-.8.32-.74.45-.65.57-.56.65-.45.73-.34.8-.2.85-.07.88v82.84h-.96v-82.88l.07-1 .25-.98.4-.94.52-.87.66-.77.77-.66.87-.53.94-.4 1-.23 1-.07h75.47zm279.35 0h-154.44v-.95h154.44z" stroke="#3a414a" stroke-width=".05" fill="#3a414a"/><path d="M1002.3 999h-.96v-.5h.95z" fill="#3a414a"/><path stroke="#3a414a" stroke-width=".05" fill="#3a414a"/><path d="M1377.38 909.64l-14.26 4.64V905z" fill="#3a414a"/><path d="M1378.92 909.64l-16.28 5.3v-10.6zm-15.33 3.98l12.25-3.98-12.26-3.98z" stroke="#3a414a" stroke-width=".05" fill="#3a414a"/><g><use xlink:href="#af" transform="matrix(1,0,0,1,1083.2718461386523,893.5090163183099) translate(0.005000000000002558 25.833333333333336)"/><use xlink:href="#ag" transform="matrix(1,0,0,1,1083.2718461386523,893.5090163183099) translate(76.63260416666668 25.833333333333336)"/></g><path d="M920.26 441.5V564a6 6 0 0 0 6 6h376.36" stroke="#3a414a" fill="none"/><path d="M920.73 441.5h-.95v-.5h.95z" stroke="#3a414a" stroke-width=".05" fill="#3a414a"/><path d="M1317.38 570l-14.26 4.63v-9.26z" stroke="#3a414a" fill="#3a414a"/><defs><path d="M600 0v-610L52-1490h220l295 481c50 82 90 150 130 243 40-96 80-164 128-243l294-481h219L790-610V0H600" id="ah"/><path d="M613 24c-304 0-509-231-509-576 0-350 205-580 509-580 305 0 511 230 511 580 0 345-206 576-511 576zm0-161c226 0 329-195 329-415 0-222-103-419-329-419-223 0-326 196-326 419 0 220 103 415 326 415" id="ai"/><path d="M537 14c-226 0-379-139-379-422v-710h180v695c0 172 97 275 253 275 160 0 281-109 281-300v-670h181V0H879v-209C806-46 684 14 537 14" id="aj"/><path d="M158 0v-1118h174v172h12c41-113 157-188 290-188 26 0 70 2 91 3v181c-11-2-60-10-108-10-161 0-279 109-279 260V0H158" id="ak"/><g id="a"><use transform="matrix(0.01953125,0,0,0.01953125,0,0)" xlink:href="#ah"/><use transform="matrix(0.01953125,0,0,0.01953125,24.08203125,0)" xlink:href="#ai"/><use transform="matrix(0.01953125,0,0,0.01953125,48.06640625,0)" xlink:href="#aj"/><use transform="matrix(0.01953125,0,0,0.01953125,71.71875,0)" xlink:href="#ak"/></g><path d="M370-1490V0H180v-1490h190" id="al"/><path d="M338-670V0H158v-1118h173l1 207c72-158 192-221 342-221 226 0 378 139 378 422V0H872v-695c0-172-96-275-252-275-161 0-282 109-282 300" id="am"/><path d="M678-1118v154H420V0H240v-964H20v-154h220v-149c0-194 155-293 318-293 85 0 141 18 168 30l-50 154c-19-6-47-17-97-17-111 0-159 58-159 166v109h258" id="an"/><path d="M471 26C259 26 90-98 90-318c0-256 228-303 435-329 202-27 287-16 287-108 0-139-79-219-234-219-161 0-248 86-283 164l-173-57c86-203 278-265 451-265 150 0 419 46 419 395V0H815v-152h-12C765-73 660 26 471 26zm31-159c199 0 310-134 310-271v-155c-30 35-226 55-295 64-131 17-246 59-246 186 0 116 97 176 231 176" id="ao"/><path d="M538 24C308 24 148-78 108-271l171-41c32 123 123 178 257 178 156 0 256-77 256-169 0-77-54-128-164-154l-186-44c-203-48-300-148-300-305 0-192 176-326 414-326 230 0 351 112 402 269l-163 42c-31-80-94-158-238-158-133 0-233 69-233 162 0 83 57 129 188 160l169 40c203 48 298 149 298 302 0 196-179 339-441 339" id="ap"/><path d="M598-1118v154H368v674c0 100 37 144 132 144 23 0 62-6 92-12L629-6c-37 13-88 20-134 20-193 0-307-107-307-290v-688H20v-154h168v-266h180v266h230" id="aq"/><path d="M613 24c-304 0-509-231-509-576 0-350 205-580 509-580 216 0 392 114 453 309l-173 49c-33-115-133-197-280-197-223 0-326 196-326 419 0 220 103 415 326 415 150 0 252-85 285-206l172 49C1010-95 832 24 613 24" id="ar"/><path d="M628 24c-324 0-524-230-524-574 0-343 198-582 503-582 237 0 487 146 487 559v75H286c9 234 145 362 343 362 132 0 231-58 273-172l174 48C1024-91 857 24 628 24zM287-650h624c-17-190-120-322-304-322-192 0-309 151-320 322" id="as"/><g id="b"><use transform="matrix(0.01953125,0,0,0.01953125,0,0)" xlink:href="#al"/><use transform="matrix(0.01953125,0,0,0.01953125,10.7421875,0)" xlink:href="#am"/><use transform="matrix(0.01953125,0,0,0.01953125,34.375,0)" xlink:href="#an"/><use transform="matrix(0.01953125,0,0,0.01953125,49.1796875,0)" xlink:href="#ak"/><use transform="matrix(0.01953125,0,0,0.01953125,64.23828125,0)" xlink:href="#ao"/><use transform="matrix(0.01953125,0,0,0.01953125,86.69921875,0)" xlink:href="#ap"/><use transform="matrix(0.01953125,0,0,0.01953125,107.8125,0)" xlink:href="#aq"/><use transform="matrix(0.01953125,0,0,0.01953125,120.8984375,0)" xlink:href="#ak"/><use transform="matrix(0.01953125,0,0,0.01953125,135.95703125,0)" xlink:href="#aj"/><use transform="matrix(0.01953125,0,0,0.01953125,159.609375,0)" xlink:href="#ar"/><use transform="matrix(0.01953125,0,0,0.01953125,182.4609375,0)" xlink:href="#aq"/><use transform="matrix(0.01953125,0,0,0.01953125,195.546875,0)" xlink:href="#aj"/><use transform="matrix(0.01953125,0,0,0.01953125,219.19921875,0)" xlink:href="#ak"/><use transform="matrix(0.01953125,0,0,0.01953125,233.59375,0)" xlink:href="#as"/></g><path d="M180 0v-1490h510c348 0 508 209 508 474 0 266-160 477-507 477H370V0H180zm190-706h312c236 0 327-133 327-310 0-176-91-307-329-307H370v617" id="at"/><path d="M577 24c-279 0-473-224-473-580 0-354 195-576 474-576 218 0 287 134 324 193h14v-551h180V0H922v-173h-20C865-111 790 24 577 24zm27-161c203 0 314-172 314-421 0-247-108-413-314-413-212 0-317 181-317 413 0 235 108 421 317 421" id="au"/><g id="c"><use transform="matrix(0.01953125,0,0,0.01953125,0,0)" xlink:href="#at"/><use transform="matrix(0.01953125,0,0,0.01953125,25.546875,0)" xlink:href="#ak"/><use transform="matrix(0.01953125,0,0,0.01953125,39.94140625,0)" xlink:href="#ai"/><use transform="matrix(0.01953125,0,0,0.01953125,63.92578125,0)" xlink:href="#au"/><use transform="matrix(0.01953125,0,0,0.01953125,88.41796875,0)" xlink:href="#aj"/><use transform="matrix(0.01953125,0,0,0.01953125,112.0703125,0)" xlink:href="#ar"/><use transform="matrix(0.01953125,0,0,0.01953125,134.921875,0)" xlink:href="#aq"/></g><path d="M180 0v-1490h908v168H370v486h669v168H370v500h727V0H180" id="av"/><path d="M158 0v-1118h180V0H158zm91-1301c-68 0-125-53-125-119s57-119 125-119c69 0 126 53 126 119s-57 119-126 119" id="aw"/><path d="M338-1490V0H158v-1490h180" id="ax"/><path d="M158 0v-1118h175l1 205c55-151 181-225 313-225 147 0 245 90 285 228 53-141 190-228 352-228 194 0 352 125 352 384V0h-181v-749c0-161-105-225-225-225-151 0-243 103-243 244V0H807v-767c0-124-93-207-219-207-131 0-250 92-250 270V0H158" id="ay"/><g id="d"><use transform="matrix(0.013020833333333334,0,0,0.013020833333333334,0,0)" xlink:href="#av"/><use transform="matrix(0.013020833333333334,0,0,0.013020833333333334,16.028645833333336,0)" xlink:href="#am"/><use transform="matrix(0.013020833333333334,0,0,0.013020833333333334,31.783854166666675,0)" xlink:href="#aq"/><use transform="matrix(0.013020833333333334,0,0,0.013020833333333334,40.50781250000001,0)" xlink:href="#aw"/><use transform="matrix(0.013020833333333334,0,0,0.013020833333333334,46.96614583333334,0)" xlink:href="#aq"/><use transform="matrix(0.013020833333333334,0,0,0.013020833333333334,55.69010416666668,0)" xlink:href="#ax"/><use transform="matrix(0.013020833333333334,0,0,0.013020833333333334,62.148437500000014,0)" xlink:href="#as"/><use transform="matrix(0.013020833333333334,0,0,0.013020833333333334,77.69531250000001,0)" xlink:href="#ay"/><use transform="matrix(0.013020833333333334,0,0,0.013020833333333334,101.05468750000001,0)" xlink:href="#as"/><use transform="matrix(0.013020833333333334,0,0,0.013020833333333334,116.6015625,0)" xlink:href="#am"/><use transform="matrix(0.013020833333333334,0,0,0.013020833333333334,132.35677083333334,0)" xlink:href="#aq"/></g><path d="M783 20c-382 0-661-292-661-764 0-473 279-766 661-766 302 0 548 182 601 489h-190c-42-204-217-313-411-313-268 0-476 208-476 590 0 381 209 588 476 588 195 0 369-110 411-313h190c-52 303-296 489-601 489" id="az"/><path d="M338-670V0H158v-1490h180v566c73-149 190-208 336-208 226 0 379 139 379 422V0H872v-695c0-172-96-275-252-275-161 0-282 109-282 300" id="aA"/><path d="M158 0v-1490h180v865h22l478-493h223L593-638 1096 0H865L456-523 338-412V0H158" id="aB"/><g id="e"><use transform="matrix(0.013020833333333334,0,0,0.013020833333333334,0,0)" xlink:href="#az"/><use transform="matrix(0.013020833333333334,0,0,0.013020833333333334,19.479166666666668,0)" xlink:href="#aA"/><use transform="matrix(0.013020833333333334,0,0,0.013020833333333334,35.247395833333336,0)" xlink:href="#as"/><use transform="matrix(0.013020833333333334,0,0,0.013020833333333334,50.794270833333336,0)" xlink:href="#ar"/><use transform="matrix(0.013020833333333334,0,0,0.013020833333333334,66.02864583333334,0)" xlink:href="#aB"/><use transform="matrix(0.013020833333333334,0,0,0.013020833333333334,80.66406250000001,0)" xlink:href="#ap"/></g><path d="M763 24c-353 0-583-224-583-531v-983h190v968c0 214 149 370 393 370 243 0 391-156 391-370v-968h190v983c0 307-230 531-581 531" id="aC"/><path d="M611 442c-248 0-391-105-460-228l146-94c47 65 117 165 314 165 178 0 307-82 307-266v-224h-17C863-141 792-18 576-18c-268 0-472-195-472-546 0-346 197-568 476-568 216 0 288 133 326 193h17v-179h175V29c0 289-215 413-487 413zm-5-620c203 0 314-146 314-390 0-237-108-403-314-403-213 0-319 180-319 403 0 230 109 390 319 390" id="aD"/><g id="f"><use transform="matrix(0.013020833333333334,0,0,0.013020833333333334,0,0)" xlink:href="#aC"/><use transform="matrix(0.013020833333333334,0,0,0.013020833333333334,19.84375,0)" xlink:href="#ap"/><use transform="matrix(0.013020833333333334,0,0,0.013020833333333334,33.919270833333336,0)" xlink:href="#ao"/><use transform="matrix(0.013020833333333334,0,0,0.013020833333333334,48.89322916666667,0)" xlink:href="#aD"/><use transform="matrix(0.013020833333333334,0,0,0.013020833333333334,65.24739583333334,0)" xlink:href="#as"/></g><path d="M98-1322v-168h1126v168H757V0H567v-1322H98" id="aE"/><g id="g"><use transform="matrix(0.013020833333333334,0,0,0.013020833333333334,0,0)" xlink:href="#aE"/><use transform="matrix(0.013020833333333334,0,0,0.013020833333333334,15.703125,0)" xlink:href="#ak"/><use transform="matrix(0.013020833333333334,0,0,0.013020833333333334,25.7421875,0)" xlink:href="#ao"/><use transform="matrix(0.013020833333333334,0,0,0.013020833333333334,40.716145833333336,0)" xlink:href="#ar"/><use transform="matrix(0.013020833333333334,0,0,0.013020833333333334,55.950520833333336,0)" xlink:href="#aB"/><use transform="matrix(0.013020833333333334,0,0,0.013020833333333334,70.5859375,0)" xlink:href="#aw"/><use transform="matrix(0.013020833333333334,0,0,0.013020833333333334,77.04427083333333,0)" xlink:href="#am"/><use transform="matrix(0.013020833333333334,0,0,0.013020833333333334,92.79947916666666,0)" xlink:href="#aD"/></g><path d="M158 418v-1536h174v179h20c37-59 106-193 324-193 279 0 474 222 474 576 0 356-194 580-473 580-213 0-288-135-325-197h-14v591H158zm492-555c209 0 317-186 317-421 0-232-105-413-317-413-206 0-314 166-314 413 0 249 111 421 314 421" id="aF"/><g id="h"><use transform="matrix(0.013020833333333334,0,0,0.013020833333333334,0,0)" xlink:href="#az"/><use transform="matrix(0.013020833333333334,0,0,0.013020833333333334,19.479166666666668,0)" xlink:href="#ai"/><use transform="matrix(0.013020833333333334,0,0,0.013020833333333334,35.46875,0)" xlink:href="#ay"/><use transform="matrix(0.013020833333333334,0,0,0.013020833333333334,58.828125,0)" xlink:href="#aF"/><use transform="matrix(0.013020833333333334,0,0,0.013020833333333334,75.15625,0)" xlink:href="#ai"/><use transform="matrix(0.013020833333333334,0,0,0.013020833333333334,91.14583333333333,0)" xlink:href="#am"/><use transform="matrix(0.013020833333333334,0,0,0.013020833333333334,106.90104166666664,0)" xlink:href="#as"/><use transform="matrix(0.013020833333333334,0,0,0.013020833333333334,122.44791666666664,0)" xlink:href="#am"/><use transform="matrix(0.013020833333333334,0,0,0.013020833333333334,138.203125,0)" xlink:href="#aq"/><use transform="matrix(0.013020833333333334,0,0,0.013020833333333334,146.66666666666669,0)" xlink:href="#ap"/></g><path d="M657 26c-323 0-524-166-541-416h195c15 169 171 246 346 246 202 0 356-106 356-265 5-203-294-238-475-293-239-73-380-191-380-389 0-252 224-419 512-419 294 0 499 171 508 396H992c-17-145-151-228-328-228-193 0-321 102-321 242 0 156 175 211 284 241l149 41c160 44 422 134 422 412 0 244-197 432-541 432" id="aG"/><g id="i"><use transform="matrix(0.01953125,0,0,0.01953125,0,0)" xlink:href="#aG"/><use transform="matrix(0.01953125,0,0,0.01953125,25.6640625,0)" xlink:href="#ar"/><use transform="matrix(0.01953125,0,0,0.01953125,48.515625,0)" xlink:href="#aA"/><use transform="matrix(0.01953125,0,0,0.01953125,72.16796875,0)" xlink:href="#as"/><use transform="matrix(0.01953125,0,0,0.01953125,95.48828125,0)" xlink:href="#ay"/><use transform="matrix(0.01953125,0,0,0.01953125,130.52734375,0)" xlink:href="#ao"/><use transform="matrix(0.01953125,0,0,0.01953125,152.98828125,0)" xlink:href="#aq"/><use transform="matrix(0.01953125,0,0,0.01953125,166.07421875,0)" xlink:href="#aw"/><use transform="matrix(0.01953125,0,0,0.01953125,175.76171875,0)" xlink:href="#ar"/></g><g id="j"><use transform="matrix(0.01953125,0,0,0.01953125,0,0)" xlink:href="#aG"/><use transform="matrix(0.01953125,0,0,0.01953125,25.6640625,0)" xlink:href="#aq"/><use transform="matrix(0.01953125,0,0,0.01953125,38.75,0)" xlink:href="#ak"/><use transform="matrix(0.01953125,0,0,0.01953125,54.43359375,0)" xlink:href="#aw"/><use transform="matrix(0.01953125,0,0,0.01953125,64.12109375,0)" xlink:href="#aF"/><use transform="matrix(0.01953125,0,0,0.01953125,88.61328125,0)" xlink:href="#as"/></g><path d="M180 0v-1490h901v168H370v510h643v168H370V0H180" id="aH"/><g id="k"><use transform="matrix(0.013020833333333334,0,0,0.013020833333333334,0,0)" xlink:href="#aH"/><use transform="matrix(0.013020833333333334,0,0,0.013020833333333334,15.7421875,0)" xlink:href="#ax"/><use transform="matrix(0.013020833333333334,0,0,0.013020833333333334,22.200520833333336,0)" xlink:href="#ao"/><use transform="matrix(0.013020833333333334,0,0,0.013020833333333334,37.17447916666667,0)" xlink:href="#aD"/></g><g id="l"><use transform="matrix(0.013020833333333334,0,0,0.013020833333333334,0,0)" xlink:href="#az"/><use transform="matrix(0.013020833333333334,0,0,0.013020833333333334,19.479166666666668,0)" xlink:href="#aA"/><use transform="matrix(0.013020833333333334,0,0,0.013020833333333334,35.247395833333336,0)" xlink:href="#as"/><use transform="matrix(0.013020833333333334,0,0,0.013020833333333334,50.794270833333336,0)" xlink:href="#ar"/><use transform="matrix(0.013020833333333334,0,0,0.013020833333333334,66.02864583333334,0)" xlink:href="#aB"/></g><path d="M481 0L54-1118h197c107 314 236 620 325 951 87-331 217-637 324-951h197L670 0H481" id="aI"/><g id="m"><use transform="matrix(0.013020833333333334,0,0,0.013020833333333334,0,0)" xlink:href="#aG"/><use transform="matrix(0.013020833333333334,0,0,0.013020833333333334,17.109375,0)" xlink:href="#as"/><use transform="matrix(0.013020833333333334,0,0,0.013020833333333334,32.65625,0)" xlink:href="#ak"/><use transform="matrix(0.013020833333333334,0,0,0.013020833333333334,43.111979166666664,0)" xlink:href="#aI"/><use transform="matrix(0.013020833333333334,0,0,0.013020833333333334,58.09895833333332,0)" xlink:href="#aw"/><use transform="matrix(0.013020833333333334,0,0,0.013020833333333334,64.55729166666666,0)" xlink:href="#ar"/><use transform="matrix(0.013020833333333334,0,0,0.013020833333333334,79.79166666666666,0)" xlink:href="#as"/></g><path d="M180 0v-1490h190v644h782v-644h190V0h-190v-678H370V0H180" id="aJ"/><g id="n"><use transform="matrix(0.010850694444444444,0,0,0.010850694444444444,0,0)" xlink:href="#aJ"/><use transform="matrix(0.010850694444444444,0,0,0.010850694444444444,16.514756944444443,0)" xlink:href="#ai"/><use transform="matrix(0.010850694444444444,0,0,0.010850694444444444,29.83940972222222,0)" xlink:href="#aq"/></g><g id="o"><use transform="matrix(0.010850694444444444,0,0,0.010850694444444444,0,0)" xlink:href="#at"/><use transform="matrix(0.010850694444444444,0,0,0.010850694444444444,14.192708333333332,0)" xlink:href="#ao"/><use transform="matrix(0.010850694444444444,0,0,0.010850694444444444,26.671006944444443,0)" xlink:href="#aq"/><use transform="matrix(0.010850694444444444,0,0,0.010850694444444444,33.94097222222222,0)" xlink:href="#aA"/></g><g id="p"><use transform="matrix(0.010850694444444444,0,0,0.010850694444444444,0,0)" xlink:href="#az"/><use transform="matrix(0.010850694444444444,0,0,0.010850694444444444,16.23263888888889,0)" xlink:href="#ao"/><use transform="matrix(0.010850694444444444,0,0,0.010850694444444444,28.7109375,0)" xlink:href="#ar"/><use transform="matrix(0.010850694444444444,0,0,0.010850694444444444,41.40625,0)" xlink:href="#aA"/><use transform="matrix(0.010850694444444444,0,0,0.010850694444444444,54.54644097222222,0)" xlink:href="#as"/></g><path d="M218-607c0-325 108-727 258-974h175c-155 315-250 682-250 974 0 265 78 531 250 886H476C306-10 218-315 218-607" id="aK"/><path d="M180 0v-1490h510c348 0 508 194 508 460 0 198-88 351-276 417L1256 0h-220L726-579c-117 2-238 0-356 1V0H180zm190-747h312c235 0 327-108 327-283 0-177-92-293-329-293H370v576" id="aL"/><path d="M96 279C273-86 346-350 346-607c0-292-95-659-250-974h175c150 246 258 650 258 974 0 297-91 602-258 886H96" id="aM"/><g id="q"><use transform="matrix(0.010850694444444444,0,0,0.010850694444444444,0,0)" xlink:href="#aK"/><use transform="matrix(0.010850694444444444,0,0,0.010850694444444444,8.10546875,0)" xlink:href="#aL"/><use transform="matrix(0.010850694444444444,0,0,0.010850694444444444,22.081163194444443,0)" xlink:href="#as"/><use transform="matrix(0.010850694444444444,0,0,0.010850694444444444,35.03689236111111,0)" xlink:href="#au"/><use transform="matrix(0.010850694444444444,0,0,0.010850694444444444,48.64366319444444,0)" xlink:href="#aw"/><use transform="matrix(0.010850694444444444,0,0,0.010850694444444444,54.025607638888886,0)" xlink:href="#ap"/><use transform="matrix(0.010850694444444444,0,0,0.010850694444444444,65.75520833333333,0)" xlink:href="#aM"/></g><g id="r"><use transform="matrix(0.013020833333333334,0,0,0.013020833333333334,0,0)" xlink:href="#av"/><use transform="matrix(0.013020833333333334,0,0,0.013020833333333334,16.028645833333336,0)" xlink:href="#aI"/><use transform="matrix(0.013020833333333334,0,0,0.013020833333333334,30.494791666666675,0)" xlink:href="#as"/><use transform="matrix(0.013020833333333334,0,0,0.013020833333333334,46.04166666666667,0)" xlink:href="#am"/><use transform="matrix(0.013020833333333334,0,0,0.013020833333333334,61.796875,0)" xlink:href="#aq"/></g><g id="s"><use transform="matrix(0.010850694444444444,0,0,0.010850694444444444,0,0)" xlink:href="#aJ"/><use transform="matrix(0.010850694444444444,0,0,0.010850694444444444,16.514756944444443,0)" xlink:href="#aw"/><use transform="matrix(0.010850694444444444,0,0,0.010850694444444444,21.896701388888886,0)" xlink:href="#aD"/><use transform="matrix(0.010850694444444444,0,0,0.010850694444444444,35.52517361111111,0)" xlink:href="#aA"/></g><path d="M600 0L52-1490h200c166 485 304 806 458 1336 156-533 285-846 449-1336h202L819 0H600" id="aN"/><g id="t"><use transform="matrix(0.010850694444444444,0,0,0.010850694444444444,0,0)" xlink:href="#aN"/><use transform="matrix(0.010850694444444444,0,0,0.010850694444444444,14.20355902777778,0)" xlink:href="#ai"/><use transform="matrix(0.010850694444444444,0,0,0.010850694444444444,27.52821180555556,0)" xlink:href="#ax"/><use transform="matrix(0.010850694444444444,0,0,0.010850694444444444,32.91015625,0)" xlink:href="#aj"/><use transform="matrix(0.010850694444444444,0,0,0.010850694444444444,46.05034722222222,0)" xlink:href="#ay"/><use transform="matrix(0.010850694444444444,0,0,0.010850694444444444,65.51649305555556,0)" xlink:href="#as"/></g><path d="M645 0H180v-1490h484c435 0 692 280 692 742 0 466-257 748-711 748zM370-168h263c363 0 539-218 539-580 0-358-176-574-521-574H370v1154" id="aO"/><path d="M180 0v-1490h528c311 0 458 177 458 395 0 191-114 278-244 313v14c139 9 302 137 302 371 0 225-148 397-499 397H180zm190-168h350c232 0 321-102 321-231 0-149-120-277-311-277H370v508zm0-668h328c160 0 286-101 286-255 0-129-87-231-280-231H370v486" id="aP"/><g id="u"><use transform="matrix(0.010850694444444444,0,0,0.010850694444444444,0,0)" xlink:href="#aO"/><use transform="matrix(0.010850694444444444,0,0,0.010850694444444444,16.03732638888889,0)" xlink:href="#aP"/></g><g id="v"><use transform="matrix(0.010850694444444444,0,0,0.010850694444444444,0,0)" xlink:href="#aK"/><use transform="matrix(0.010850694444444444,0,0,0.010850694444444444,8.10546875,0)" xlink:href="#az"/><use transform="matrix(0.010850694444444444,0,0,0.010850694444444444,24.33810763888889,0)" xlink:href="#ax"/><use transform="matrix(0.010850694444444444,0,0,0.010850694444444444,29.720052083333336,0)" xlink:href="#aw"/><use transform="matrix(0.010850694444444444,0,0,0.010850694444444444,35.10199652777778,0)" xlink:href="#ar"/><use transform="matrix(0.010850694444444444,0,0,0.010850694444444444,47.79730902777778,0)" xlink:href="#aB"/><use transform="matrix(0.010850694444444444,0,0,0.010850694444444444,59.99348958333333,0)" xlink:href="#aJ"/><use transform="matrix(0.010850694444444444,0,0,0.010850694444444444,76.50824652777777,0)" xlink:href="#ai"/><use transform="matrix(0.010850694444444444,0,0,0.010850694444444444,89.83289930555556,0)" xlink:href="#aj"/><use transform="matrix(0.010850694444444444,0,0,0.010850694444444444,102.97309027777777,0)" xlink:href="#ap"/><use transform="matrix(0.010850694444444444,0,0,0.010850694444444444,114.70269097222221,0)" xlink:href="#as"/><use transform="matrix(0.010850694444444444,0,0,0.010850694444444444,127.40885416666666,0)" xlink:href="#aM"/></g><path d="M180 0v-1490h270l367 940c28 72 75 218 110 339 35-117 81-264 110-339l362-940h271V0h-187c2-448-5-837 7-1287-157 497-311 829-483 1287H842C666-458 514-784 354-1284c12 438 5 843 7 1284H180" id="aQ"/><g id="w"><use transform="matrix(0.013020833333333334,0,0,0.013020833333333334,0,0)" xlink:href="#aQ"/><use transform="matrix(0.013020833333333334,0,0,0.013020833333333334,24.088541666666668,0)" xlink:href="#as"/><use transform="matrix(0.013020833333333334,0,0,0.013020833333333334,39.63541666666667,0)" xlink:href="#aq"/><use transform="matrix(0.013020833333333334,0,0,0.013020833333333334,48.35937500000001,0)" xlink:href="#ak"/><use transform="matrix(0.013020833333333334,0,0,0.013020833333333334,58.81510416666667,0)" xlink:href="#aw"/><use transform="matrix(0.013020833333333334,0,0,0.013020833333333334,65.2734375,0)" xlink:href="#ar"/><use transform="matrix(0.013020833333333334,0,0,0.013020833333333334,80.5078125,0)" xlink:href="#ap"/></g><path fill="#333" d="M135 0v-1490h581c339 0 533 192 533 485 0 204-94 351-264 424L1302 0H964L680-532H440V0H135zm305-779h220c186 0 274-77 274-226 0-150-88-233-275-233H440v459" id="aR"/><path fill="#333" d="M633 22C291 22 81-200 81-553c0-345 210-579 537-579 292 0 525 185 525 567v84H378c7 183 109 277 260 277 105 0 184-46 216-132l272 51C1071-99 893 22 633 22zM380-669h474c-15-146-94-237-233-237-143 0-229 99-241 237" id="aS"/><path fill="#333" d="M440 22C227 22 68-92 68-313c0-250 202-322 422-343 195-21 271-24 271-105 0-95-63-149-175-149-116 0-187 57-211 129l-275-46c57-194 237-305 487-305 240 0 474 108 474 379V0H777v-155h-10C713-51 605 22 440 22zm85-211c140 0 238-93 238-211v-121c-37 26-156 42-222 51-111 16-185 59-185 149 0 87 70 132 169 132" id="aT"/><path fill="#333" d="M428-1490V0H128v-1490h300" id="aU"/><path fill="#333" d="M683-1118v229H474v562c0 71 29 104 102 104 23 0 73-7 95-13l43 225C647 9 580 16 520 16 296 16 174-96 174-301v-588H20v-229h154v-266h300v266h209" id="aV"/><path fill="#333" d="M128 0v-1118h300V0H128zm150-1264c-91 0-165-68-165-154 0-85 74-154 165-154 90 0 165 69 165 154 0 86-75 154-165 154" id="aW"/><path fill="#333" d="M128 0v-1118h278l12 217c60-163 185-234 319-234 143 0 236 81 288 251 63-172 205-251 359-251 205 0 357 138 357 381V0h-301v-697c0-126-76-187-177-187-114 0-184 79-184 196V0H789v-705c0-109-72-179-174-179-106 0-187 74-187 208V0H128" id="aX"/><g id="x"><use transform="matrix(0.013020833333333334,0,0,0.013020833333333334,0,0)" xlink:href="#aR"/><use transform="matrix(0.013020833333333334,0,0,0.013020833333333334,17.187500000000004,0)" xlink:href="#aS"/><use transform="matrix(0.013020833333333334,0,0,0.013020833333333334,33.33333333333334,0)" xlink:href="#aT"/><use transform="matrix(0.013020833333333334,0,0,0.013020833333333334,48.81510416666668,0)" xlink:href="#aU"/><use transform="matrix(0.013020833333333334,0,0,0.013020833333333334,56.43229166666668,0)" xlink:href="#aV"/><use transform="matrix(0.013020833333333334,0,0,0.013020833333333334,66.19791666666669,0)" xlink:href="#aW"/><use transform="matrix(0.013020833333333334,0,0,0.013020833333333334,73.42447916666669,0)" xlink:href="#aX"/><use transform="matrix(0.013020833333333334,0,0,0.013020833333333334,97.76041666666669,0)" xlink:href="#aS"/></g><path fill="#333" d="M750 21c-371 0-615-218-615-544v-967h305v942c0 174 123 299 310 299s309-125 309-299v-942h306v967c0 326-247 544-615 544" id="aY"/><path fill="#333" d="M128 418v-1536h295v188h14c41-89 129-202 319-202 248 0 453 193 453 575 0 372-197 576-455 576-183 0-275-108-317-198h-9v597H128zm534-640c156 0 240-139 240-336 0-196-83-334-240-334-154 0-241 131-241 334 0 202 88 336 241 336" id="aZ"/><path fill="#333" d="M537 19C279 19 81-185 81-557c0-382 206-575 454-575 190 0 278 113 318 202h10v-560h300V0H868v-179h-15C812-89 719 19 537 19zm92-241c153 0 240-134 240-336 0-203-86-334-240-334-158 0-240 138-240 334 0 197 84 336 240 336" id="ba"/><path fill="#333" d="M572 22C302 22 117-98 78-306l279-48c29 105 101 156 224 156 114 0 185-48 185-115 0-118-228-130-337-155-215-49-322-150-322-317 0-215 187-347 470-347 265 0 424 116 466 298l-266 47c-24-76-87-130-196-130-98 0-174 46-174 113 0 56 38 95 144 117l201 40c216 44 320 143 320 302 0 220-207 367-500 367" id="bb"/><g id="y"><use transform="matrix(0.013020833333333334,0,0,0.013020833333333334,0,0)" xlink:href="#aY"/><use transform="matrix(0.013020833333333334,0,0,0.013020833333333334,19.518229166666668,0)" xlink:href="#aZ"/><use transform="matrix(0.013020833333333334,0,0,0.013020833333333334,36.328125,0)" xlink:href="#ba"/><use transform="matrix(0.013020833333333334,0,0,0.013020833333333334,53.138020833333336,0)" xlink:href="#aT"/><use transform="matrix(0.013020833333333334,0,0,0.013020833333333334,68.61979166666667,0)" xlink:href="#aV"/><use transform="matrix(0.013020833333333334,0,0,0.013020833333333334,78.125,0)" xlink:href="#aS"/><use transform="matrix(0.013020833333333334,0,0,0.013020833333333334,94.01041666666667,0)" xlink:href="#bb"/></g><path fill="#333" d="M628 22C291 22 81-210 81-554c0-346 210-578 547-578 336 0 547 232 547 578 0 344-211 576-547 576zm0-236c160 0 242-146 242-341 0-197-82-341-242-341S387-753 387-555c0 195 81 341 241 341" id="bc"/><path fill="#333" d="M428-647V0H128v-1118h283l4 231c63-156 176-245 348-245 232 0 384 159 384 421V0H847v-659c0-139-76-222-202-222-128 0-217 86-217 234" id="bd"/><path fill="#333" d="M628 22C291 22 81-210 81-554c0-346 210-578 547-578 265 0 455 142 497 372l-279 52c-25-116-99-188-215-188-160 0-244 139-244 341 0 200 84 341 244 341 116 0 193-74 217-195l279 51C1085-123 896 22 628 22" id="be"/><g id="z"><use transform="matrix(0.013020833333333334,0,0,0.013020833333333334,0,0)" xlink:href="#aR"/><use transform="matrix(0.013020833333333334,0,0,0.013020833333333334,17.187500000000004,0)" xlink:href="#aS"/><use transform="matrix(0.013020833333333334,0,0,0.013020833333333334,33.07291666666667,0)" xlink:href="#bc"/><use transform="matrix(0.013020833333333334,0,0,0.013020833333333334,49.42708333333334,0)" xlink:href="#bd"/><use transform="matrix(0.013020833333333334,0,0,0.013020833333333334,66.02864583333334,0)" xlink:href="#be"/><use transform="matrix(0.013020833333333334,0,0,0.013020833333333334,81.71875000000001,0)" xlink:href="#aW"/><use transform="matrix(0.013020833333333334,0,0,0.013020833333333334,88.94531250000001,0)" xlink:href="#aU"/><use transform="matrix(0.013020833333333334,0,0,0.013020833333333334,96.17187500000001,0)" xlink:href="#aS"/><use transform="matrix(0.013020833333333334,0,0,0.013020833333333334,112.0572916666667,0)" xlink:href="#ba"/></g><path fill="#333" d="M625 442c-280 0-454-114-503-274l258-72c28 63 97 128 243 128 153 0 246-69 246-216v-206h-23C805-108 717-16 536-16 284-16 81-191 81-561c0-378 208-571 456-571 188 0 280 113 321 202h13v-188h295V-9c0 303-226 451-541 451zm5-686c153 0 240-119 240-319 0-198-86-329-240-329-158 0-241 137-241 329 0 195 85 319 241 319" id="bf"/><g id="A"><use transform="matrix(0.013020833333333334,0,0,0.013020833333333334,0,0)" xlink:href="#aY"/><use transform="matrix(0.013020833333333334,0,0,0.013020833333333334,19.518229166666668,0)" xlink:href="#bb"/><use transform="matrix(0.013020833333333334,0,0,0.013020833333333334,34.453125,0)" xlink:href="#aT"/><use transform="matrix(0.013020833333333334,0,0,0.013020833333333334,49.934895833333336,0)" xlink:href="#bf"/><use transform="matrix(0.013020833333333334,0,0,0.013020833333333334,66.78385416666667,0)" xlink:href="#aS"/></g><path fill="#333" d="M128 0v-1118h290v195h12c54-169 184-238 367-200v268c-27-8-86-15-130-15-138 0-239 95-239 234V0H128" id="bg"/><g id="B"><use transform="matrix(0.013020833333333334,0,0,0.013020833333333334,0,0)" xlink:href="#aR"/><use transform="matrix(0.013020833333333334,0,0,0.013020833333333334,17.187500000000004,0)" xlink:href="#aS"/><use transform="matrix(0.013020833333333334,0,0,0.013020833333333334,33.07291666666667,0)" xlink:href="#aZ"/><use transform="matrix(0.013020833333333334,0,0,0.013020833333333334,49.88281250000001,0)" xlink:href="#bc"/><use transform="matrix(0.013020833333333334,0,0,0.013020833333333334,66.23697916666667,0)" xlink:href="#bg"/><use transform="matrix(0.013020833333333334,0,0,0.013020833333333334,77.6171875,0)" xlink:href="#aV"/><use transform="matrix(0.013020833333333334,0,0,0.013020833333333334,87.3828125,0)" xlink:href="#aW"/><use transform="matrix(0.013020833333333334,0,0,0.013020833333333334,94.609375,0)" xlink:href="#bd"/><use transform="matrix(0.013020833333333334,0,0,0.013020833333333334,111.2109375,0)" xlink:href="#bf"/></g><path fill="#333" d="M786 20C389 20 94-260 94-744c0-487 299-766 692-766 339 0 597 194 641 529h-309c-28-162-156-258-326-258-233 0-388 179-388 495 0 323 157 493 387 493 170 0 298-97 328-259h309c-34 277-266 530-642 530" id="bh"/><path fill="#333" d="M513 14c-232 0-385-159-385-421v-711h300v659c0 139 76 222 202 222 127 0 217-86 217-234v-647h301V0H864l-4-232C797-74 683 14 513 14" id="bi"/><g id="C"><use transform="matrix(0.013020833333333334,0,0,0.013020833333333334,0,0)" xlink:href="#bh"/><use transform="matrix(0.013020833333333334,0,0,0.013020833333333334,19.7265625,0)" xlink:href="#bi"/><use transform="matrix(0.013020833333333334,0,0,0.013020833333333334,36.328125,0)" xlink:href="#bb"/><use transform="matrix(0.013020833333333334,0,0,0.013020833333333334,51.263020833333336,0)" xlink:href="#aV"/><use transform="matrix(0.013020833333333334,0,0,0.013020833333333334,60.76822916666667,0)" xlink:href="#bc"/><use transform="matrix(0.013020833333333334,0,0,0.013020833333333334,77.12239583333334,0)" xlink:href="#aX"/><use transform="matrix(0.013020833333333334,0,0,0.013020833333333334,101.45833333333334,0)" xlink:href="#aS"/><use transform="matrix(0.013020833333333334,0,0,0.013020833333333334,117.34375,0)" xlink:href="#bg"/></g><path fill="#333" d="M135 0v-1490h980v253H440v416h609v249H440V0H135" id="bj"/><g id="D"><use transform="matrix(0.013020833333333334,0,0,0.013020833333333334,0,0)" xlink:href="#bj"/><use transform="matrix(0.013020833333333334,0,0,0.013020833333333334,15.208333333333334,0)" xlink:href="#aT"/><use transform="matrix(0.013020833333333334,0,0,0.013020833333333334,30.690104166666668,0)" xlink:href="#be"/><use transform="matrix(0.013020833333333334,0,0,0.013020833333333334,46.380208333333336,0)" xlink:href="#aW"/><use transform="matrix(0.013020833333333334,0,0,0.013020833333333334,53.606770833333336,0)" xlink:href="#bd"/><use transform="matrix(0.013020833333333334,0,0,0.013020833333333334,70.20833333333334,0)" xlink:href="#bf"/></g><path fill="#333" d="M135 0v-1490h591c327 0 492 160 492 383 0 177-115 286-268 320v15c168 8 326 140 326 361 0 236-176 411-512 411H135zm305-251h264c179 0 258-76 258-189 0-125-97-215-250-215H440v404zm0-613h241c131 0 228-74 228-194 0-109-79-183-222-183H440v377" id="bk"/><g id="E"><use transform="matrix(0.013020833333333334,0,0,0.013020833333333334,0,0)" xlink:href="#bk"/><use transform="matrix(0.013020833333333334,0,0,0.013020833333333334,17.643229166666668,0)" xlink:href="#aW"/><use transform="matrix(0.013020833333333334,0,0,0.013020833333333334,24.869791666666668,0)" xlink:href="#aU"/><use transform="matrix(0.013020833333333334,0,0,0.013020833333333334,32.09635416666667,0)" xlink:href="#aU"/><use transform="matrix(0.013020833333333334,0,0,0.013020833333333334,39.32291666666667,0)" xlink:href="#aW"/><use transform="matrix(0.013020833333333334,0,0,0.013020833333333334,46.54947916666667,0)" xlink:href="#bd"/><use transform="matrix(0.013020833333333334,0,0,0.013020833333333334,63.15104166666667,0)" xlink:href="#bf"/></g><path fill="#333" d="M135 0v-1490h581c339 0 533 210 533 503 0 295-197 500-540 500H440V0H135zm305-733h220c186 0 274-104 274-254s-88-251-275-251H440v505" id="bl"/><path fill="#333" d="M119 395l88-620h300L323 395H119" id="bm"/><g id="F"><use transform="matrix(0.013020833333333334,0,0,0.013020833333333334,0,0)" xlink:href="#bl"/><use transform="matrix(0.013020833333333334,0,0,0.013020833333333334,17.057291666666668,0)" xlink:href="#bc"/><use transform="matrix(0.013020833333333334,0,0,0.013020833333333334,33.411458333333336,0)" xlink:href="#bg"/><use transform="matrix(0.013020833333333334,0,0,0.013020833333333334,44.79166666666667,0)" xlink:href="#aV"/><use transform="matrix(0.013020833333333334,0,0,0.013020833333333334,54.6875,0)" xlink:href="#aT"/><use transform="matrix(0.013020833333333334,0,0,0.013020833333333334,70.16927083333334,0)" xlink:href="#aU"/><use transform="matrix(0.013020833333333334,0,0,0.013020833333333334,77.39583333333334,0)" xlink:href="#bm"/></g><path fill="#333" d="M428-647V0H128v-1490h294v586c65-146 175-228 341-228 232 0 385 159 385 421V0H847v-659c0-139-76-222-202-222-128 0-217 86-217 234" id="bn"/><path fill="#333" d="M128 0v-1490h300v802h17l366-430h347L740-633 1179 0H826L514-456l-86 97V0H128" id="bo"/><g id="G"><use transform="matrix(0.013020833333333334,0,0,0.013020833333333334,0,0)" xlink:href="#bh"/><use transform="matrix(0.013020833333333334,0,0,0.013020833333333334,19.7265625,0)" xlink:href="#bn"/><use transform="matrix(0.013020833333333334,0,0,0.013020833333333334,36.328125,0)" xlink:href="#aS"/><use transform="matrix(0.013020833333333334,0,0,0.013020833333333334,52.21354166666667,0)" xlink:href="#be"/><use transform="matrix(0.013020833333333334,0,0,0.013020833333333334,67.90364583333334,0)" xlink:href="#bo"/><use transform="matrix(0.013020833333333334,0,0,0.013020833333333334,82.77343750000001,0)" xlink:href="#bc"/><use transform="matrix(0.013020833333333334,0,0,0.013020833333333334,99.12760416666669,0)" xlink:href="#bi"/><use transform="matrix(0.013020833333333334,0,0,0.013020833333333334,115.7291666666667,0)" xlink:href="#aV"/></g><g id="H"><use transform="matrix(0.013020833333333334,0,0,0.013020833333333334,0,0)" xlink:href="#aG"/><use transform="matrix(0.013020833333333334,0,0,0.013020833333333334,17.109375,0)" xlink:href="#ar"/><use transform="matrix(0.013020833333333334,0,0,0.013020833333333334,32.34375,0)" xlink:href="#aA"/><use transform="matrix(0.013020833333333334,0,0,0.013020833333333334,48.11197916666667,0)" xlink:href="#as"/><use transform="matrix(0.013020833333333334,0,0,0.013020833333333334,63.65885416666667,0)" xlink:href="#ay"/><use transform="matrix(0.013020833333333334,0,0,0.013020833333333334,87.01822916666667,0)" xlink:href="#ao"/><use transform="matrix(0.013020833333333334,0,0,0.013020833333333334,101.9921875,0)" xlink:href="#aq"/><use transform="matrix(0.013020833333333334,0,0,0.013020833333333334,110.71614583333334,0)" xlink:href="#aw"/><use transform="matrix(0.013020833333333334,0,0,0.013020833333333334,117.17447916666664,0)" xlink:href="#ar"/></g><path d="M52 0l541-1490h220L1361 0h-200l-149-416H398L254 0H52zm404-582h497c-103-290-145-390-251-756-108 377-145 460-246 756" id="bp"/><g id="I"><use transform="matrix(0.013020833333333334,0,0,0.013020833333333334,0,0)" xlink:href="#bp"/><use transform="matrix(0.013020833333333334,0,0,0.013020833333333334,18.3984375,0)" xlink:href="#at"/><use transform="matrix(0.013020833333333334,0,0,0.013020833333333334,35.4296875,0)" xlink:href="#al"/></g><g id="J"><use transform="matrix(0.010850694444444444,0,0,0.010850694444444444,0,0)" xlink:href="#az"/><use transform="matrix(0.010850694444444444,0,0,0.010850694444444444,16.23263888888889,0)" xlink:href="#ai"/><use transform="matrix(0.010850694444444444,0,0,0.010850694444444444,29.557291666666664,0)" xlink:href="#ak"/><use transform="matrix(0.010850694444444444,0,0,0.010850694444444444,37.55425347222222,0)" xlink:href="#as"/></g><g id="K"><use transform="matrix(0.010850694444444444,0,0,0.010850694444444444,0,0)" xlink:href="#bp"/><use transform="matrix(0.010850694444444444,0,0,0.010850694444444444,15.33203125,0)" xlink:href="#aF"/><use transform="matrix(0.010850694444444444,0,0,0.010850694444444444,28.938802083333332,0)" xlink:href="#aF"/><use transform="matrix(0.010850694444444444,0,0,0.010850694444444444,42.545572916666664,0)" xlink:href="#ax"/><use transform="matrix(0.010850694444444444,0,0,0.010850694444444444,47.92751736111111,0)" xlink:href="#aw"/><use transform="matrix(0.010850694444444444,0,0,0.010850694444444444,53.30946180555556,0)" xlink:href="#ar"/><use transform="matrix(0.010850694444444444,0,0,0.010850694444444444,66.22178819444443,0)" xlink:href="#ao"/><use transform="matrix(0.010850694444444444,0,0,0.010850694444444444,78.70008680555554,0)" xlink:href="#aq"/><use transform="matrix(0.010850694444444444,0,0,0.010850694444444444,85.97005208333331,0)" xlink:href="#aw"/><use transform="matrix(0.010850694444444444,0,0,0.010850694444444444,91.35199652777776,0)" xlink:href="#ai"/><use transform="matrix(0.010850694444444444,0,0,0.010850694444444444,104.67664930555553,0)" xlink:href="#am"/></g><g id="L"><use transform="matrix(0.010850694444444444,0,0,0.010850694444444444,0,0)" xlink:href="#aK"/><use transform="matrix(0.010850694444444444,0,0,0.010850694444444444,8.10546875,0)" xlink:href="#at"/><use transform="matrix(0.010850694444444444,0,0,0.010850694444444444,22.178819444444443,0)" xlink:href="#ai"/><use transform="matrix(0.010850694444444444,0,0,0.010850694444444444,35.50347222222222,0)" xlink:href="#ap"/><use transform="matrix(0.010850694444444444,0,0,0.010850694444444444,47.233072916666664,0)" xlink:href="#aq"/><use transform="matrix(0.010850694444444444,0,0,0.010850694444444444,54.28602430555556,0)" xlink:href="#aD"/><use transform="matrix(0.010850694444444444,0,0,0.010850694444444444,67.91449652777777,0)" xlink:href="#ak"/><use transform="matrix(0.010850694444444444,0,0,0.010850694444444444,75.91145833333333,0)" xlink:href="#as"/><use transform="matrix(0.010850694444444444,0,0,0.010850694444444444,88.8671875,0)" xlink:href="#ap"/><use transform="matrix(0.010850694444444444,0,0,0.010850694444444444,100.59678819444444,0)" xlink:href="#aM"/></g><path d="M458 0L52-1490h194c108 439 233 855 324 1313 92-459 221-873 331-1313h216c110 438 234 854 330 1307 92-455 216-869 323-1307h196L1558 0h-221l-256-944c-26-95-50-200-73-331-22 122-44 223-73 331L680 0H458" id="bq"/><path d="M677 24c-213 0-288-135-325-197h-20V0H158v-1490h180v551h14c37-59 106-193 324-193 279 0 474 222 474 576 0 356-194 580-473 580zm-27-161c209 0 317-186 317-421 0-232-105-413-317-413-206 0-314 166-314 413 0 249 111 421 314 421" id="br"/><g id="M"><use transform="matrix(0.013020833333333334,0,0,0.013020833333333334,0,0)" xlink:href="#bq"/><use transform="matrix(0.013020833333333334,0,0,0.013020833333333334,24.921875,0)" xlink:href="#as"/><use transform="matrix(0.013020833333333334,0,0,0.013020833333333334,40.46875,0)" xlink:href="#br"/></g><g id="N"><use transform="matrix(0.013020833333333334,0,0,0.013020833333333334,0,0)" xlink:href="#at"/><use transform="matrix(0.013020833333333334,0,0,0.013020833333333334,16.888020833333332,0)" xlink:href="#ai"/><use transform="matrix(0.013020833333333334,0,0,0.013020833333333334,32.877604166666664,0)" xlink:href="#ak"/><use transform="matrix(0.013020833333333334,0,0,0.013020833333333334,43.33333333333333,0)" xlink:href="#aq"/><use transform="matrix(0.013020833333333334,0,0,0.013020833333333334,52.1875,0)" xlink:href="#ao"/><use transform="matrix(0.013020833333333334,0,0,0.013020833333333334,67.16145833333333,0)" xlink:href="#ax"/></g><g id="O"><use transform="matrix(0.013020833333333334,0,0,0.013020833333333334,0,0)" xlink:href="#az"/><use transform="matrix(0.013020833333333334,0,0,0.013020833333333334,19.479166666666668,0)" xlink:href="#aj"/><use transform="matrix(0.013020833333333334,0,0,0.013020833333333334,35.247395833333336,0)" xlink:href="#ap"/><use transform="matrix(0.013020833333333334,0,0,0.013020833333333334,49.32291666666667,0)" xlink:href="#aq"/><use transform="matrix(0.013020833333333334,0,0,0.013020833333333334,57.78645833333335,0)" xlink:href="#ai"/><use transform="matrix(0.013020833333333334,0,0,0.013020833333333334,73.77604166666667,0)" xlink:href="#ay"/><use transform="matrix(0.013020833333333334,0,0,0.013020833333333334,97.13541666666667,0)" xlink:href="#as"/><use transform="matrix(0.013020833333333334,0,0,0.013020833333333334,112.68229166666667,0)" xlink:href="#ak"/></g><path d="M128 359l88-567h206L266 359H128" id="bs"/><g id="P"><use transform="matrix(0.013020833333333334,0,0,0.013020833333333334,0,0)" xlink:href="#bp"/><use transform="matrix(0.013020833333333334,0,0,0.013020833333333334,18.3984375,0)" xlink:href="#au"/><use transform="matrix(0.013020833333333334,0,0,0.013020833333333334,34.7265625,0)" xlink:href="#ay"/><use transform="matrix(0.013020833333333334,0,0,0.013020833333333334,58.0859375,0)" xlink:href="#aw"/><use transform="matrix(0.013020833333333334,0,0,0.013020833333333334,64.54427083333333,0)" xlink:href="#am"/><use transform="matrix(0.013020833333333334,0,0,0.013020833333333334,80.29947916666666,0)" xlink:href="#aw"/><use transform="matrix(0.013020833333333334,0,0,0.013020833333333334,86.75781249999999,0)" xlink:href="#ap"/><use transform="matrix(0.013020833333333334,0,0,0.013020833333333334,100.83333333333331,0)" xlink:href="#aq"/><use transform="matrix(0.013020833333333334,0,0,0.013020833333333334,109.55729166666664,0)" xlink:href="#ak"/><use transform="matrix(0.013020833333333334,0,0,0.013020833333333334,119.59635416666664,0)" xlink:href="#ao"/><use transform="matrix(0.013020833333333334,0,0,0.013020833333333334,134.57031249999997,0)" xlink:href="#aq"/><use transform="matrix(0.013020833333333334,0,0,0.013020833333333334,143.29427083333331,0)" xlink:href="#aw"/><use transform="matrix(0.013020833333333334,0,0,0.013020833333333334,149.75260416666666,0)" xlink:href="#ai"/><use transform="matrix(0.013020833333333334,0,0,0.013020833333333334,165.7421875,0)" xlink:href="#am"/><use transform="matrix(0.013020833333333334,0,0,0.013020833333333334,181.49739583333334,0)" xlink:href="#bs"/></g><g id="Q"><use transform="matrix(0.013020833333333334,0,0,0.013020833333333334,0,0)" xlink:href="#at"/><use transform="matrix(0.013020833333333334,0,0,0.013020833333333334,17.03125,0)" xlink:href="#ax"/><use transform="matrix(0.013020833333333334,0,0,0.013020833333333334,23.489583333333336,0)" xlink:href="#ao"/><use transform="matrix(0.013020833333333334,0,0,0.013020833333333334,38.46354166666667,0)" xlink:href="#am"/></g><g id="R"><use transform="matrix(0.013020833333333334,0,0,0.013020833333333334,0,0)" xlink:href="#bp"/><use transform="matrix(0.013020833333333334,0,0,0.013020833333333334,18.3984375,0)" xlink:href="#au"/><use transform="matrix(0.013020833333333334,0,0,0.013020833333333334,34.7265625,0)" xlink:href="#ay"/><use transform="matrix(0.013020833333333334,0,0,0.013020833333333334,58.0859375,0)" xlink:href="#aw"/><use transform="matrix(0.013020833333333334,0,0,0.013020833333333334,64.54427083333333,0)" xlink:href="#am"/><use transform="matrix(0.013020833333333334,0,0,0.013020833333333334,80.29947916666666,0)" xlink:href="#aw"/><use transform="matrix(0.013020833333333334,0,0,0.013020833333333334,86.75781249999999,0)" xlink:href="#ap"/><use transform="matrix(0.013020833333333334,0,0,0.013020833333333334,100.83333333333331,0)" xlink:href="#aq"/><use transform="matrix(0.013020833333333334,0,0,0.013020833333333334,109.55729166666664,0)" xlink:href="#ak"/><use transform="matrix(0.013020833333333334,0,0,0.013020833333333334,119.59635416666664,0)" xlink:href="#ao"/><use transform="matrix(0.013020833333333334,0,0,0.013020833333333334,134.57031249999997,0)" xlink:href="#aq"/><use transform="matrix(0.013020833333333334,0,0,0.013020833333333334,143.29427083333331,0)" xlink:href="#aw"/><use transform="matrix(0.013020833333333334,0,0,0.013020833333333334,149.75260416666666,0)" xlink:href="#ai"/><use transform="matrix(0.013020833333333334,0,0,0.013020833333333334,165.7421875,0)" xlink:href="#am"/></g><g id="S"><use transform="matrix(0.013020833333333334,0,0,0.013020833333333334,0,0)" xlink:href="#aG"/><use transform="matrix(0.013020833333333334,0,0,0.013020833333333334,17.109375,0)" xlink:href="#aj"/><use transform="matrix(0.013020833333333334,0,0,0.013020833333333334,32.87760416666667,0)" xlink:href="#br"/><use transform="matrix(0.013020833333333334,0,0,0.013020833333333334,49.20572916666667,0)" xlink:href="#ap"/><use transform="matrix(0.013020833333333334,0,0,0.013020833333333334,63.28125,0)" xlink:href="#ar"/><use transform="matrix(0.013020833333333334,0,0,0.013020833333333334,78.515625,0)" xlink:href="#ak"/><use transform="matrix(0.013020833333333334,0,0,0.013020833333333334,88.97135416666667,0)" xlink:href="#aw"/><use transform="matrix(0.013020833333333334,0,0,0.013020833333333334,95.4296875,0)" xlink:href="#aF"/><use transform="matrix(0.013020833333333334,0,0,0.013020833333333334,111.7578125,0)" xlink:href="#aq"/><use transform="matrix(0.013020833333333334,0,0,0.013020833333333334,120.48177083333334,0)" xlink:href="#aw"/><use transform="matrix(0.013020833333333334,0,0,0.013020833333333334,126.94010416666664,0)" xlink:href="#aw"/><use transform="matrix(0.013020833333333334,0,0,0.013020833333333334,133.3984375,0)" xlink:href="#ai"/><use transform="matrix(0.013020833333333334,0,0,0.013020833333333334,149.38802083333334,0)" xlink:href="#am"/></g><g id="T"><use transform="matrix(0.013020833333333334,0,0,0.013020833333333334,0,0)" xlink:href="#aK"/><use transform="matrix(0.013020833333333334,0,0,0.013020833333333334,9.7265625,0)" xlink:href="#at"/><use transform="matrix(0.013020833333333334,0,0,0.013020833333333334,26.7578125,0)" xlink:href="#ak"/><use transform="matrix(0.013020833333333334,0,0,0.013020833333333334,36.35416666666667,0)" xlink:href="#ai"/><use transform="matrix(0.013020833333333334,0,0,0.013020833333333334,52.34375000000001,0)" xlink:href="#au"/><use transform="matrix(0.013020833333333334,0,0,0.013020833333333334,68.671875,0)" xlink:href="#aj"/><use transform="matrix(0.013020833333333334,0,0,0.013020833333333334,84.44010416666667,0)" xlink:href="#ar"/><use transform="matrix(0.013020833333333334,0,0,0.013020833333333334,99.67447916666667,0)" xlink:href="#aq"/><use transform="matrix(0.013020833333333334,0,0,0.013020833333333334,108.13802083333334,0)" xlink:href="#ap"/><use transform="matrix(0.013020833333333334,0,0,0.013020833333333334,122.21354166666664,0)" xlink:href="#aM"/></g><path fill="#333" d="M681 22C323 22 94-145 85-462h297c10 151 131 226 296 226 163 0 271-77 271-190 0-102-95-149-257-189l-164-41c-252-61-403-188-403-405 0-269 236-449 560-449 330 0 546 183 551 445H941c-11-119-106-188-259-188-156 0-244 72-244 172-3 156 226 185 373 221 250 61 445 186 445 436 0 271-213 446-575 446" id="bt"/><path fill="#333" d="M754 19C571 19 479-89 437-179h-14V0H128v-1490h300v560h9c41-89 129-202 319-202 248 0 453 193 453 575 0 372-197 576-455 576zm-92-241c156 0 240-139 240-336 0-196-83-334-240-334-154 0-241 131-241 334 0 202 88 336 241 336" id="bu"/><g id="U"><use transform="matrix(0.013020833333333334,0,0,0.013020833333333334,0,0)" xlink:href="#bt"/><use transform="matrix(0.013020833333333334,0,0,0.013020833333333334,17.4609375,0)" xlink:href="#bi"/><use transform="matrix(0.013020833333333334,0,0,0.013020833333333334,34.0625,0)" xlink:href="#bu"/><use transform="matrix(0.013020833333333334,0,0,0.013020833333333334,50.872395833333336,0)" xlink:href="#bb"/><use transform="matrix(0.013020833333333334,0,0,0.013020833333333334,65.80729166666667,0)" xlink:href="#be"/><use transform="matrix(0.013020833333333334,0,0,0.013020833333333334,81.49739583333334,0)" xlink:href="#bg"/><use transform="matrix(0.013020833333333334,0,0,0.013020833333333334,92.55208333333334,0)" xlink:href="#aW"/><use transform="matrix(0.013020833333333334,0,0,0.013020833333333334,99.77864583333334,0)" xlink:href="#aZ"/><use transform="matrix(0.013020833333333334,0,0,0.013020833333333334,116.5885416666667,0)" xlink:href="#aV"/><use transform="matrix(0.013020833333333334,0,0,0.013020833333333334,126.3541666666667,0)" xlink:href="#aW"/><use transform="matrix(0.013020833333333334,0,0,0.013020833333333334,133.58072916666669,0)" xlink:href="#bc"/><use transform="matrix(0.013020833333333334,0,0,0.013020833333333334,149.93489583333334,0)" xlink:href="#bd"/></g><g id="V"><use transform="matrix(0.013020833333333334,0,0,0.013020833333333334,0,0)" xlink:href="#bh"/><use transform="matrix(0.013020833333333334,0,0,0.013020833333333334,19.7265625,0)" xlink:href="#bg"/><use transform="matrix(0.013020833333333334,0,0,0.013020833333333334,29.934895833333336,0)" xlink:href="#aS"/><use transform="matrix(0.013020833333333334,0,0,0.013020833333333334,46.08072916666667,0)" xlink:href="#aT"/><use transform="matrix(0.013020833333333334,0,0,0.013020833333333334,61.5625,0)" xlink:href="#aV"/><use transform="matrix(0.013020833333333334,0,0,0.013020833333333334,71.328125,0)" xlink:href="#aW"/><use transform="matrix(0.013020833333333334,0,0,0.013020833333333334,78.5546875,0)" xlink:href="#bc"/><use transform="matrix(0.013020833333333334,0,0,0.013020833333333334,94.90885416666667,0)" xlink:href="#bd"/></g><path fill="#333" d="M768-1560L288 224H28l480-1784h260" id="bv"/><use transform="matrix(0.013020833333333334,0,0,0.013020833333333334,0,0)" xlink:href="#bv" id="W"/><g id="X"><use transform="matrix(0.013020833333333334,0,0,0.013020833333333334,0,0)" xlink:href="#bh"/><use transform="matrix(0.013020833333333334,0,0,0.013020833333333334,19.7265625,0)" xlink:href="#bn"/><use transform="matrix(0.013020833333333334,0,0,0.013020833333333334,36.328125,0)" xlink:href="#aT"/><use transform="matrix(0.013020833333333334,0,0,0.013020833333333334,51.809895833333336,0)" xlink:href="#bd"/><use transform="matrix(0.013020833333333334,0,0,0.013020833333333334,68.41145833333334,0)" xlink:href="#bf"/><use transform="matrix(0.013020833333333334,0,0,0.013020833333333334,85.26041666666669,0)" xlink:href="#aS"/><use transform="matrix(0.013020833333333334,0,0,0.013020833333333334,101.14583333333336,0)" xlink:href="#bb"/></g><g id="Y"><use transform="matrix(0.013020833333333334,0,0,0.013020833333333334,0,0)" xlink:href="#aY"/><use transform="matrix(0.013020833333333334,0,0,0.013020833333333334,19.518229166666668,0)" xlink:href="#bb"/><use transform="matrix(0.013020833333333334,0,0,0.013020833333333334,34.453125,0)" xlink:href="#aT"/><use transform="matrix(0.013020833333333334,0,0,0.013020833333333334,49.934895833333336,0)" xlink:href="#bf"/><use transform="matrix(0.013020833333333334,0,0,0.013020833333333334,66.78385416666667,0)" xlink:href="#aS"/></g><g id="Z"><use transform="matrix(0.013020833333333334,0,0,0.013020833333333334,0,0)" xlink:href="#bu"/><use transform="matrix(0.013020833333333334,0,0,0.013020833333333334,17.070312500000004,0)" xlink:href="#aT"/><use transform="matrix(0.013020833333333334,0,0,0.013020833333333334,32.552083333333336,0)" xlink:href="#bb"/><use transform="matrix(0.013020833333333334,0,0,0.013020833333333334,47.48697916666667,0)" xlink:href="#aS"/><use transform="matrix(0.013020833333333334,0,0,0.013020833333333334,63.37239583333335,0)" xlink:href="#ba"/></g><g id="ab"><use transform="matrix(0.013020833333333334,0,0,0.013020833333333334,0,0)" xlink:href="#bu"/><use transform="matrix(0.013020833333333334,0,0,0.013020833333333334,16.809895833333336,0)" xlink:href="#aW"/><use transform="matrix(0.013020833333333334,0,0,0.013020833333333334,24.036458333333336,0)" xlink:href="#aU"/><use transform="matrix(0.013020833333333334,0,0,0.013020833333333334,31.263020833333336,0)" xlink:href="#aU"/><use transform="matrix(0.013020833333333334,0,0,0.013020833333333334,38.489583333333336,0)" xlink:href="#aW"/><use transform="matrix(0.013020833333333334,0,0,0.013020833333333334,45.716145833333336,0)" xlink:href="#bd"/><use transform="matrix(0.013020833333333334,0,0,0.013020833333333334,62.317708333333336,0)" xlink:href="#bf"/></g><g id="ac"><use transform="matrix(0.013020833333333334,0,0,0.013020833333333334,0,0)" xlink:href="#al"/><use transform="matrix(0.013020833333333334,0,0,0.013020833333333334,7.161458333333334,0)" xlink:href="#am"/><use transform="matrix(0.013020833333333334,0,0,0.013020833333333334,22.526041666666668,0)" xlink:href="#aI"/><use transform="matrix(0.013020833333333334,0,0,0.013020833333333334,36.9921875,0)" xlink:href="#ai"/><use transform="matrix(0.013020833333333334,0,0,0.013020833333333334,52.981770833333336,0)" xlink:href="#aw"/><use transform="matrix(0.013020833333333334,0,0,0.013020833333333334,59.44010416666667,0)" xlink:href="#ar"/><use transform="matrix(0.013020833333333334,0,0,0.013020833333333334,74.67447916666667,0)" xlink:href="#as"/><use transform="matrix(0.013020833333333334,0,0,0.013020833333333334,90.22135416666667,0)" xlink:href="#ap"/></g><g id="ad"><use transform="matrix(0.013020833333333334,0,0,0.013020833333333334,0,0)" xlink:href="#aK"/><use transform="matrix(0.013020833333333334,0,0,0.013020833333333334,9.7265625,0)" xlink:href="#at"/><use transform="matrix(0.013020833333333334,0,0,0.013020833333333334,26.7578125,0)" xlink:href="#ak"/><use transform="matrix(0.013020833333333334,0,0,0.013020833333333334,36.35416666666667,0)" xlink:href="#ai"/><use transform="matrix(0.013020833333333334,0,0,0.013020833333333334,52.34375000000001,0)" xlink:href="#au"/><use transform="matrix(0.013020833333333334,0,0,0.013020833333333334,68.671875,0)" xlink:href="#aj"/><use transform="matrix(0.013020833333333334,0,0,0.013020833333333334,84.44010416666667,0)" xlink:href="#ar"/><use transform="matrix(0.013020833333333334,0,0,0.013020833333333334,99.67447916666667,0)" xlink:href="#aq"/><use transform="matrix(0.013020833333333334,0,0,0.013020833333333334,108.13802083333334,0)" xlink:href="#ap"/><use transform="matrix(0.013020833333333334,0,0,0.013020833333333334,122.21354166666664,0)" xlink:href="#bs"/></g><g id="ae"><use transform="matrix(0.013020833333333334,0,0,0.013020833333333334,0,0)" xlink:href="#aQ"/><use transform="matrix(0.013020833333333334,0,0,0.013020833333333334,24.088541666666668,0)" xlink:href="#as"/><use transform="matrix(0.013020833333333334,0,0,0.013020833333333334,39.63541666666667,0)" xlink:href="#aq"/><use transform="matrix(0.013020833333333334,0,0,0.013020833333333334,48.09895833333334,0)" xlink:href="#as"/><use transform="matrix(0.013020833333333334,0,0,0.013020833333333334,63.64583333333335,0)" xlink:href="#ak"/><use transform="matrix(0.013020833333333334,0,0,0.013020833333333334,73.68489583333334,0)" xlink:href="#ap"/><use transform="matrix(0.013020833333333334,0,0,0.013020833333333334,87.76041666666667,0)" xlink:href="#aM"/></g><path fill="#333" d="M49 0l509-1490h400L1480 0h-339l-115-346H497L386 0H49zm524-585h374c-75-213-124-402-192-666-66 268-110 453-182 666" id="bw"/><g id="af"><use transform="matrix(0.013020833333333334,0,0,0.013020833333333334,0,0)" xlink:href="#bw"/><use transform="matrix(0.013020833333333334,0,0,0.013020833333333334,19.908854166666668,0)" xlink:href="#bi"/><use transform="matrix(0.013020833333333334,0,0,0.013020833333333334,36.51041666666667,0)" xlink:href="#ba"/><use transform="matrix(0.013020833333333334,0,0,0.013020833333333334,53.32031250000001,0)" xlink:href="#aW"/><use transform="matrix(0.013020833333333334,0,0,0.013020833333333334,60.546875,0)" xlink:href="#aV"/></g><path fill="#333" d="M135 0v-1490h305v1237h643V0H135" id="bx"/><g id="ag"><use transform="matrix(0.013020833333333334,0,0,0.013020833333333334,0,0)" xlink:href="#bx"/><use transform="matrix(0.013020833333333334,0,0,0.013020833333333334,15.078125,0)" xlink:href="#bc"/><use transform="matrix(0.013020833333333334,0,0,0.013020833333333334,31.432291666666668,0)" xlink:href="#bf"/></g></defs></g></svg>