<svg width="150" height="27" viewBox="0 0 150 27" fill="none" xmlns="http://www.w3.org/2000/svg">
<path d="M37.1836 10.789C37.0858 10.4175 36.8578 10.0982 36.4668 9.83759C36.0758 9.57042 35.6197 9.44661 35.0918 9.44661C33.8212 9.44661 32.9089 9.97443 32.9089 10.9193C32.9089 11.3754 33.1109 11.7143 33.5149 11.9358C33.9059 12.1574 34.551 12.3789 35.4307 12.5809C36.7861 12.9068 37.6332 13.1609 38.4673 13.5519C38.8778 13.7539 39.2101 13.9624 39.4512 14.197C39.9139 14.6727 40.1941 15.3113 40.1615 16.1128C40.1289 17.2662 39.6728 18.1654 38.7931 18.804C37.9134 19.4491 36.6948 19.7684 35.1635 19.7684C33.6322 19.7684 32.4984 19.4817 31.573 18.9213C30.6542 18.3609 30.1199 17.5464 29.9766 16.4777L32.6026 16.2431C32.7395 16.7644 33.0457 17.1554 33.5345 17.416C34.0232 17.6767 34.564 17.82 35.1635 17.82C35.8282 17.82 36.3821 17.6832 36.8252 17.3965C37.2683 17.1228 37.4898 16.7383 37.4898 16.2626C37.4898 15.598 36.8643 15.0767 36.0693 14.7704C35.6653 14.6205 35.17 14.4837 34.5771 14.3469C33.743 14.1449 33.0848 13.9559 32.5961 13.7865C32.1074 13.6301 31.6773 13.415 31.2928 13.1544C30.5304 12.6331 30.2633 11.9489 30.2633 10.9193C30.2633 9.83107 30.6999 8.98396 31.573 8.39749C32.4397 7.81754 33.6257 7.51779 35.1375 7.51779C37.7961 7.51779 39.5294 8.58646 39.8161 10.6065L37.1705 10.789H37.1836Z" fill="white"/>
<path d="M51.503 15.7218L53.8945 16.7253C53.3862 17.6702 52.6369 18.4065 51.6529 18.9474C50.6689 19.4948 49.5807 19.775 48.3817 19.775C47.1827 19.775 46.1597 19.5339 45.1953 19.0321C44.2308 18.5369 43.4489 17.8136 42.869 16.8752C42.289 15.9303 41.9893 14.8617 41.9893 13.6562C41.9893 12.4506 42.2825 11.3689 42.869 10.4306C43.4489 9.48574 44.2308 8.76895 45.1953 8.27371C46.1597 7.77847 47.2284 7.53085 48.3817 7.53085C49.5351 7.53085 50.669 7.80454 51.6594 8.35842C52.6434 8.90579 53.3928 9.64864 53.8945 10.5935L51.503 11.5905C50.871 10.3915 49.7241 9.73987 48.3817 9.73987C47.3326 9.73987 46.4529 10.1113 45.7231 10.8542C44.9933 11.597 44.6349 12.5354 44.6349 13.6692C44.6349 14.803 44.9933 15.7414 45.7231 16.4712C46.4529 17.2141 47.3326 17.5855 48.3817 17.5855C49.7241 17.5855 50.871 16.9273 51.503 15.7349V15.7218Z" fill="white"/>
<path d="M65.5555 19.6185V13.6627C65.5555 11.1343 64.6367 9.79197 62.5059 9.79197C61.4568 9.79197 60.6097 10.1504 59.958 10.8737C59.2934 11.5905 58.961 12.5223 58.961 13.6692V19.625H56.3154V3.36691H58.961V9.58997C59.7104 8.28671 61.2873 7.5243 63.3726 7.5243C65.0798 7.5243 66.3049 8.05213 67.0673 9.10125C67.8297 10.1504 68.2077 11.6752 68.2077 13.6627V19.6185H65.549H65.5555Z" fill="white"/>
<path d="M81.5425 9.43359C82.6763 10.6326 83.3084 12.4637 83.1911 14.5424H73.2342C73.4167 15.4742 73.8468 16.2236 74.5245 16.797C75.2022 17.377 75.9971 17.6637 76.8964 17.6637C78.4538 17.6637 79.7114 16.8035 80.3435 15.3764L82.6112 16.4647C82.0899 17.4942 81.3079 18.2957 80.2849 18.8887C79.2553 19.4817 78.128 19.7749 76.8964 19.7749C75.1696 19.7749 73.5731 19.1624 72.4067 18.1133C71.2403 17.0642 70.5039 15.4677 70.5039 13.6496C70.5039 11.8316 71.2468 10.2286 72.4067 9.17294C73.5731 8.12382 75.1696 7.51129 76.8964 7.51129C78.76 7.51129 80.4087 8.22808 81.5425 9.42708V9.43359ZM74.4854 10.5088C73.8207 11.0822 73.4036 11.8316 73.2277 12.7765H80.5846C80.4021 11.8316 79.9916 11.0692 79.327 10.5023C78.6623 9.94186 77.8543 9.65515 76.9029 9.65515C75.9515 9.65515 75.1565 9.94187 74.4919 10.5153L74.4854 10.5088Z" fill="white"/>
<path d="M104.653 9.17292C105.318 10.2742 105.605 11.7012 105.605 13.6627V19.6185H102.959V13.6627C102.959 11.1343 102.144 9.79198 100.209 9.79198C99.1795 9.79198 98.378 10.1439 97.8046 10.8476C97.2312 11.5579 96.9445 12.4962 96.9445 13.6627V19.6185H94.2858V13.6627C94.2858 11.1343 93.4713 9.79198 91.5359 9.79198C90.5064 9.79198 89.7049 10.1439 89.1314 10.8476C88.5515 11.5579 88.2648 12.4962 88.2648 13.6627V19.6185H85.6191V7.70025H88.1475L88.2648 9.58345C88.9815 8.15639 90.3174 7.51779 92.4678 7.51779C94.4813 7.51779 95.8041 8.37794 96.4362 10.0917C97.2116 8.43007 98.8277 7.51779 101.147 7.51779C102.796 7.51779 103.976 8.07819 104.653 9.16641V9.17292Z" fill="white"/>
<path d="M118.06 9.58349L118.177 7.70028H120.705V19.6186H118.177L118.06 17.7354C117.363 19.1103 115.877 19.801 113.603 19.788C110.488 19.8597 107.842 17.1554 107.907 13.6627C107.842 10.183 110.488 7.45918 113.603 7.52434C115.675 7.52434 117.33 8.3063 118.06 9.59001V9.58349ZM116.972 16.4126C117.701 15.6827 118.06 14.7639 118.06 13.6497C118.06 12.5354 117.701 11.6296 116.972 10.8867C116.242 10.1569 115.349 9.78549 114.306 9.78549C113.264 9.78549 112.391 10.1569 111.661 10.8867C110.931 11.6296 110.573 12.5484 110.573 13.6497C110.573 14.7509 110.931 15.6827 111.661 16.4126C112.391 17.1554 113.27 17.5268 114.306 17.5268C115.343 17.5268 116.242 17.1554 116.972 16.4126Z" fill="white"/>
<path d="M124.997 5.00253H127.63V7.70028H130.699V9.77246H127.63V15.7023C127.63 16.7905 128.001 17.3509 128.855 17.4486C129.376 17.5529 129.988 17.5334 130.699 17.3965V19.586C129.917 19.7098 129.193 19.775 128.529 19.775C127.245 19.775 126.346 19.4491 125.812 18.791C125.271 18.1459 124.997 17.1424 124.997 15.7935V9.77246H123.303V7.70028H124.997V5.00253Z" fill="white"/>
<path d="M133.38 5.52384C133.061 5.21757 132.904 4.83312 132.904 4.39001C132.904 3.9469 133.061 3.5885 133.38 3.2692C133.686 2.96294 134.071 2.80655 134.514 2.80655C134.957 2.80655 135.328 2.96294 135.635 3.2692C135.941 3.5885 136.097 3.95993 136.097 4.39001C136.097 4.82008 135.941 5.20454 135.635 5.52384C135.328 5.84314 134.944 5.99953 134.514 5.99953C134.084 5.99953 133.686 5.84314 133.38 5.52384ZM133.178 7.70028H135.837V19.6186H133.178V7.70028Z" fill="white"/>
<path d="M147.608 15.7218L149.999 16.7253C149.491 17.6702 148.741 18.4065 147.757 18.9474C146.773 19.4948 145.685 19.775 144.486 19.775C143.287 19.775 142.264 19.5339 141.3 19.0321C140.335 18.5369 139.553 17.8136 138.973 16.8752C138.394 15.9303 138.094 14.8617 138.094 13.6562C138.094 12.4506 138.387 11.3689 138.973 10.4306C139.553 9.48574 140.342 8.76895 141.3 8.27371C142.258 7.77847 143.333 7.53085 144.486 7.53085C145.64 7.53085 146.773 7.80454 147.764 8.35842C148.748 8.90579 149.497 9.64864 149.999 10.5935L147.608 11.5905C146.975 10.3915 145.829 9.73987 144.486 9.73987C143.437 9.73987 142.557 10.1113 141.828 10.8542C141.098 11.597 140.739 12.5354 140.739 13.6692C140.739 14.803 141.098 15.7414 141.828 16.4712C142.557 17.2141 143.437 17.5855 144.486 17.5855C145.829 17.5855 146.975 16.9273 147.608 15.7349V15.7218Z" fill="white"/>
<path d="M10.3832 18.9351L12.738 16.4896L6.71713 10.2371C5.22615 8.68882 5.22615 6.16596 6.71713 4.61764C8.2081 3.06932 10.6375 3.06932 12.1285 4.61764L18.1494 10.8701L20.5043 8.42469L14.4834 2.1722C11.6944 -0.724068 7.15126 -0.724068 4.36226 2.1722C1.57326 5.06848 1.57326 9.78631 4.36226 12.6826L10.3832 18.9351Z" fill="#DB6669"/>
<path d="M10.6079 6.21151C9.95885 5.53753 8.90201 5.53753 8.25299 6.21151C7.60398 6.88548 7.60398 7.98297 8.25299 8.65694L15.7956 16.4896L10.3842 22.1091L2.84163 14.2764C2.19261 13.6025 1.13577 13.6025 0.48676 14.2764C-0.162253 14.9504 -0.162253 16.0479 0.48676 16.7219L10.3842 27L20.5053 16.4896L10.6079 6.21151Z" fill="#DB6669"/>
</svg>
